<?xml version="1.0" encoding="utf-8"?>
<!-- Generator: Adobe Illustrator 24.0.1, SVG Export Plug-In . SVG Version: 6.00 Build 0)  -->
<svg version="1.1" id="Layer_1" xmlns="http://www.w3.org/2000/svg" xmlns:xlink="http://www.w3.org/1999/xlink" x="0px" y="0px"
	 viewBox="0 0 595.28 841.89" style="enable-background:new 0 0 595.28 841.89;" xml:space="preserve">
<style type="text/css">
	.st0{fill:#FFFFFF;stroke:#000000;stroke-miterlimit:10;}
	.st1{fill:none;stroke:#000000;stroke-width:4;stroke-miterlimit:10;}
	.st2{stroke:#998437;stroke-miterlimit:10;}
	.st3{font-family:'CambriaMath';}
	.st4{font-size:70.3614px;}
	.st5{stroke:#723416;stroke-miterlimit:10;}
	.st6{fill:#FFEED1;}
</style>
<path class="st0" d="M517.58,615.19H188.55c-15.61,0-28.26-12.65-28.26-28.26V139.45c0-15.61,12.65-28.26,28.26-28.26h329.03
	c15.61,0,28.26,12.65,28.26,28.26v447.48C545.84,602.54,533.19,615.19,517.58,615.19z"/>
<path class="st1" d="M225,195.84c72-25.51,110.23-16.75,132-3c5.42,3.42,7.43,5.65,13,9c37.07,22.3,85.73,6.55,122-11"/>
<path class="st1" d="M225,239.46c72-25.51,110.23-16.75,132-3c5.42,3.42,7.43,5.65,13,9c37.07,22.3,85.73,6.55,122-11"/>
<path class="st1" d="M225,284.88c72-25.51,110.23-16.75,132-3c5.42,3.42,7.43,5.65,13,9c37.07,22.3,85.73,6.55,122-11"/>
<path class="st1" d="M225,330.3c72-25.51,110.23-16.75,132-3c5.42,3.42,7.43,5.65,13,9c37.07,22.3,85.73,6.55,122-11"/>
<path class="st1" d="M225,371.34c72-25.51,110.23-16.75,132-3c5.42,3.42,7.43,5.65,13,9c37.07,22.3,85.73,6.55,122-11"/>
<path class="st1" d="M225,412.38c72-25.51,110.23-16.75,132-3c5.42,3.42,7.43,5.65,13,9c37.07,22.3,85.73,6.55,122-11"/>
<text transform="matrix(0.9873 0 0 1 197.9031 566.516)"><tspan x="0" y="0" class="st2 st3 st4">Intelli</tspan><tspan x="177.96" y="0" class="st5 st3 st4">Q</tspan></text>
<g>
	<g>
		<path class="st6" d="M482.17,532.48c2.51-4.99,5.02-9.99,7.53-14.98c1.08-2.16-1.16-4.75-3.42-3.42
			c-5.57,3.29-11.34,6.22-17.31,8.71c0.81,1.39,1.62,2.79,2.43,4.18c5.85-6.14,12.46-11.45,19.73-15.82
			c-1.14-1.14-2.28-2.28-3.42-3.42c-9.01,12.24-20.77,22.13-32.3,31.88c1.31,1.01,2.62,2.02,3.93,3.03
			c9.52-12.48,20.35-24.39,34.04-32.36c-1.22-0.94-2.45-1.88-3.67-2.82c-4.81,12.27-13.57,22.92-24.61,30.09
			c1.25,0.72,2.51,1.44,3.76,2.16c0.13-4.99,3.75-9.56,6.71-13.32c3.28-4.18,7-7.99,11.06-11.41c-1.39-0.81-2.79-1.62-4.18-2.43
			c-1.03,4.07-3.96,7.27-6.65,10.37c-3.07,3.53-6.27,6.96-9.57,10.27c1.39,0.81,2.79,1.62,4.18,2.43c1.7-5.47,4.22-10.59,7.46-15.3
			c-1.52-0.64-3.05-1.28-4.57-1.93c-2.24,8.27-5.61,16.13-10.06,23.46c1.44,0.84,2.88,1.68,4.32,2.52
			c4.26-8.5,9.9-16.16,16.76-22.73c-1.39-0.81-2.79-1.62-4.18-2.43c-1.84,7.38-5.58,14-9.32,20.56c-0.67,1.17-0.28,2.73,0.9,3.42
			c1.26,0.74,2.63,0.2,3.42-0.9c6.31-8.73,13.27-16.97,20.77-24.69c-1.39-0.81-2.79-1.62-4.18-2.43
			c-3.91,10.47-10.47,19.8-18.86,27.15c1.42,0.59,2.85,1.18,4.27,1.77c1.05-8.11,7.54-14.46,13.03-19.95
			c-1.39-0.81-2.79-1.62-4.18-2.43c-2.57,8.71-8.69,16.02-16.74,20.2c1.22,0.94,2.45,1.88,3.67,2.82
			c2.78-8.33,8.54-15.5,16.04-20.06c-1.22-0.94-2.45-1.88-3.67-2.82c-3.85,10.96-12.89,19.07-21.82,26.01
			c1.31,1.01,2.62,2.02,3.93,3.03c5.04-10.78,12.26-20.35,21.25-28.15c-1.31-1.01-2.62-2.02-3.93-3.03
			c-5.82,10.41-13.4,19.67-22.44,27.45c-1.02,0.88-0.9,2.63,0,3.54c1.01,1.01,2.51,0.88,3.54,0c9.33-8.03,17.21-17.72,23.22-28.46
			c1.43-2.55-1.81-4.86-3.93-3.03c-9.27,8.05-16.83,18.05-22.03,29.16c-1.25,2.66,1.68,4.77,3.93,3.03
			c9.7-7.53,18.94-16.36,23.11-28.21c0.73-2.08-1.88-3.91-3.67-2.82c-8.63,5.25-15.14,13.47-18.34,23.05
			c-0.73,2.19,1.85,3.77,3.67,2.82c9.17-4.76,16.12-13.29,19.04-23.19c0.71-2.42-2.43-4.17-4.18-2.43
			c-6.63,6.62-13.25,13.82-14.5,23.48c-0.12,0.95,0.73,1.96,1.54,2.28c0.97,0.39,1.95,0.17,2.73-0.52
			c9.06-7.94,15.94-18.09,20.15-29.36c0.9-2.4-2.52-4.14-4.18-2.43c-7.81,8.03-15,16.63-21.56,25.7c1.44,0.84,2.88,1.68,4.32,2.52
			c3.94-6.92,7.89-13.97,9.82-21.75c0.61-2.43-2.36-4.17-4.18-2.43c-7.15,6.84-13.12,14.9-17.55,23.75
			c-1.43,2.86,2.63,5.3,4.32,2.52c4.66-7.67,8.22-15.99,10.56-24.65c0.77-2.84-3-4.21-4.57-1.93c-3.48,5.06-6.14,10.64-7.97,16.5
			c-0.75,2.42,2.45,4.16,4.18,2.43c3.53-3.54,6.93-7.19,10.19-10.98c3.05-3.54,6.16-7.23,7.33-11.87c0.64-2.54-2.32-4-4.18-2.43
			c-4.45,3.76-8.44,7.98-11.99,12.61c-3.51,4.58-7.09,9.68-7.24,15.66c-0.05,1.84,2.18,3.19,3.76,2.16
			c12.21-7.93,21.6-19.54,26.91-33.08c0.83-2.11-1.92-3.84-3.67-2.82c-14.47,8.42-25.78,20.98-35.84,34.15
			c-0.75,0.98-0.25,2.56,0.64,3.23c1.05,0.78,2.31,0.63,3.28-0.2c11.9-10.07,23.79-20.27,33.09-32.9c1.53-2.08-1.4-4.64-3.42-3.42
			c-7.61,4.58-14.61,10.17-20.74,16.6c-0.77,0.81-0.96,2.06-0.39,3.03c0.51,0.87,1.82,1.57,2.82,1.15
			c6.38-2.65,12.56-5.7,18.51-9.21c-1.14-1.14-2.28-2.28-3.42-3.42c-2.51,4.99-5.02,9.99-7.53,14.98
			C476.41,532.82,480.72,535.36,482.17,532.48L482.17,532.48z"/>
	</g>
</g>
<g>
	<g>
		<path class="st6" d="M464.04,521.09c-0.1,5.17-0.2,10.34-0.3,15.51c1.67,0,3.33,0,5,0c-0.17-8.25-0.71-16.48-1.61-24.68
			c-0.15-1.34-1.04-2.5-2.5-2.5c-1.35,0-2.5,1.14-2.5,2.5c0.01,5.1,0.02,10.21,0.03,15.31c0.01,3.22,4.96,3.22,5,0
			c0.04-2.94-0.42-5.89-1.4-8.66c-0.95-2.7-4.68-2.17-4.91,0.66c-0.37,4.61,0.17,9.28,1.55,13.69c0.33,1.05,1.28,1.84,2.41,1.84
			c1,0,2.25-0.77,2.41-1.84c0.56-3.79,0.33-7.57-0.97-11.2c-0.75-2.11-4.33-2.63-4.82,0c-1.07,5.75-1.71,11.58-1.86,17.42
			c1.64-0.22,3.27-0.44,4.91-0.66c-0.95-3.65-2.65-6.91-4.96-9.87c-1.2-1.54-3.72-0.54-4.18,1.1c-0.77,2.77-1.28,5.57-1.61,8.42
			c1.67,0,3.33,0,5,0c-0.13-2.19-0.08-4.37,0.16-6.55c-1.67,0-3.33,0-5,0c0.02,4.12,0.04,8.24,0.06,12.35
			c0.01,2.78,4.21,3.44,4.91,0.66c0.9-3.57,1.5-7.2,1.88-10.87c-1.67,0-3.33,0-5,0c-0.18,5.83-0.08,11.67,0.29,17.49
			c0.17,2.74,4.13,3.49,4.91,0.66c1-3.6,1.75-7.26,2.26-10.96c-1.64-0.22-3.27-0.44-4.91-0.66c0,2.7,0.01,5.39,0.01,8.09
			c0,1.35,1.15,2.5,2.5,2.5c1.48,0,2.34-1.15,2.5-2.5c0.1-0.84,0.65-1.5,1.25-2.03c-1.42-0.59-2.85-1.18-4.27-1.77
			c0.1,2,0.05,4-0.26,5.98c-0.21,1.33,0.34,2.69,1.75,3.08c1.31,0.36,2.72-0.44,3.08-1.75c0.89-3.22,1.77-6.43,2.66-9.65
			c0.73-2.65-3.32-4.55-4.57-1.93c-1.5,3.14-2.29,6.48-2.23,9.98c0.04,2.15,2.71,3.31,4.27,1.77c2.86-2.85,5.72-5.69,8.58-8.54
			c-1.39-0.81-2.79-1.62-4.18-2.43c-0.76,3.73-3.04,6.75-6.42,8.49c1.14,1.14,2.28,2.28,3.42,3.42c1.45-2.31,2.89-4.61,4.34-6.92
			c-1.52-0.64-3.05-1.28-4.57-1.93c-2.19,5.83-4.62,11.56-7.29,17.19c-0.48,1.02-0.44,2.2,0.39,3.03c0.72,0.72,2.16,1.05,3.03,0.39
			c6.13-4.66,11.39-10.21,15.64-16.64c1.56-2.36-2.02-5.13-3.93-3.03c-6.76,7.42-13.1,15.21-19.04,23.31
			c1.55,0.42,3.11,0.84,4.66,1.26c0.14-2.48,1.15-4.8,2.25-7c1.26-2.52,2.58-5.01,3.88-7.5c2.64-5.08,5.29-10.16,7.95-15.23
			c-1.52-0.64-3.05-1.28-4.57-1.93c-2.23,9.16-4.48,18.45-8.98,26.81c1.52,0.64,3.05,1.28,4.57,1.93c1.47-6.42,2.92-13,2.24-19.62
			c-0.28-2.67-4.11-3.56-4.91-0.66c-2.22,7.97-4.28,15.98-6.2,24.03c1.61,0.44,3.21,0.89,4.82,1.33c1.15-8.23,2.3-16.45,3.45-24.68
			c0.19-1.34-0.33-2.68-1.75-3.08c-1.22-0.34-2.82,0.41-3.08,1.75c-1.33,7.04-2.66,14.08-3.99,21.12c1.64,0.22,3.27,0.44,4.91,0.66
			c0.57-6.62,0.63-13.27,0.17-19.9c-0.19-2.75-4.09-3.47-4.91-0.66c-2.44,8.3-3.12,16.97-3.76,25.55c-0.1,1.35,1.22,2.5,2.5,2.5
			c1.47,0,2.36-1.15,2.5-2.5c0.65-6.2,1.3-12.41,1.95-18.61c-1.67,0-3.33,0-5,0c-0.51,5.76-1.02,11.52-1.53,17.28
			c-0.12,1.35,1.23,2.5,2.5,2.5c1.46,0,2.37-1.15,2.5-2.5c0.61-6.28,0.37-12.55-0.57-18.78c-0.16-1.07-1.41-1.84-2.41-1.84
			c-1.19,0-1.98,0.8-2.41,1.84c-2.5,5.99-3.88,12.37-4.19,18.85c-0.16,3.22,4.81,3.2,5,0c0.27-4.62,0.29-9.24,0.06-13.86
			c-0.14-2.7-4.25-3.54-4.91-0.66c-0.96,4.19-1.54,8.47-1.75,12.76c1.67,0,3.33,0,5,0c0-3.08,0-6.17,0-9.25c0-3.25-4.77-3.18-5,0
			c-0.09,1.25-0.32,2.45-0.65,3.66c1.64,0.22,3.27,0.44,4.91,0.66c-0.1-1.8-0.21-3.59-0.31-5.39c-0.18-3.19-5.07-3.24-5,0
			c0.03,1.13,0.05,2.25,0.08,3.38c0.03,1.35,1.13,2.5,2.5,2.5c1.49,0,2.33-1.15,2.5-2.5c0.22-1.79,0.26-3.56,0.12-5.35
			c-0.23-2.84-3.93-3.36-4.91-0.66c-0.38,1.05-0.38,2.2,0.01,3.25c0.95,2.55,4.87,2.3,4.91-0.66c0.02-1.6,0.04-3.2,0.06-4.81
			c-1.67,0-3.33,0-5,0c0.05,1.16,0.1,2.31,0.16,3.47c0.12,2.68,4.35,3.56,4.91,0.66c0.62-3.17,0.64-6.26,0.09-9.44
			c-0.41-2.4-4.39-2.37-4.82,0c-0.32,1.77-0.45,3.52-0.25,5.31c0.14,1.24,0.84,2.3,2.17,2.46c1.18,0.14,2.45-0.56,2.74-1.79
			c0.51-2.16,0.78-4.38,0.77-6.6c-1.67,0-3.33,0-5,0c0.33,2.99,1.11,5.75,2.45,8.45c0.94,1.9,4.12,1.45,4.57-0.6
			c1.08-4.9,1.7-9.9,1.85-14.92c-1.67,0-3.33,0-5,0c-0.06,3.09-0.12,6.19-0.18,9.28c-0.05,2.78,4.28,3.45,4.91,0.66
			c0.97-4.33,1.34-8.76,1-13.18c-0.2-2.66-4.23-3.57-4.91-0.66c-1.03,4.37-1.34,8.87-0.81,13.33c0.15,1.24,0.84,2.3,2.17,2.46
			c1.15,0.14,2.49-0.55,2.74-1.79c1.12-5.55,1.17-11.13,0.2-16.7c-0.41-2.36-4.46-2.42-4.82,0c-0.83,5.62-1.66,11.24-2.49,16.86
			c1.64,0.22,3.27,0.44,4.91,0.66c0.17-5.98,0.35-11.96,0.52-17.94c0.08-2.75-4.45-3.49-4.91-0.66c-0.77,4.74-1.11,9.51-0.9,14.31
			c0.14,3.25,4.72,3.18,5,0c0.49-5.53,0.64-11.08,0.44-16.63c-0.09-2.69-4.35-3.55-4.91-0.66c-0.81,4.15-1.23,8.36-1.21,12.59
			c0.01,2.75,4.29,3.48,4.91,0.66c1.06-4.86,1.75-9.8,2.06-14.76c0.17-2.77-4.49-3.47-4.91-0.66c-0.92,6.16-1.54,12.35-1.82,18.57
			c-0.06,1.35,1.19,2.5,2.5,2.5c1.44,0,2.4-1.15,2.5-2.5c0.6-7.81,1.2-15.62,1.8-23.43c0.1-1.35-1.22-2.5-2.5-2.5
			c-1.45,0-2.38,1.15-2.5,2.5c-0.5,5.84-0.72,11.69-0.63,17.55c0.04,2.74,4.3,3.5,4.91,0.66c1.28-5.96,2.14-12.01,2.56-18.09
			c0.09-1.35-1.22-2.5-2.5-2.5c-1.49,0-2.33,1.15-2.5,2.5c-0.35,2.76-0.38,5.53-0.11,8.31c0.31,3.21,4.69,3.22,5,0
			c0.45-4.7,0.9-9.4,1.35-14.11c-1.67,0-3.33,0-5,0c-0.33,6.21-0.14,12.43,0.56,18.61c0.14,1.24,0.84,2.3,2.17,2.46
			c1.2,0.14,2.43-0.56,2.74-1.79c1.68-6.62,2.45-13.45,2.26-20.28c-0.09-3.24-4.81-3.2-5,0c-0.28,4.58-0.31,9.17-0.1,13.76
			c0.06,1.24,0.91,2.31,2.17,2.46c1.11,0.13,2.55-0.55,2.74-1.79c0.7-4.6,0.99-9.21,0.76-13.86c-0.16-3.2-4.99-3.24-5,0
			c-0.02,6.8,0.33,13.58,1.05,20.34c0.13,1.24,0.85,2.3,2.17,2.46c1.1,0.13,2.57-0.55,2.74-1.79c1.01-7.17,1.64-14.38,1.81-21.61
			c0.08-3.23-4.87-3.21-5,0c-0.16,3.87-0.33,7.75-0.49,11.62c-0.06,1.35,1.19,2.5,2.5,2.5c1.46,0,2.37-1.15,2.5-2.5
			c0.45-4.56,0.91-9.12,1.36-13.67c-1.42,0.59-2.85,1.18-4.27,1.77c1.76,2.09,4.77,2.14,7.13,1.17c2.22-0.91,3.73-3.18,6.03-3.84
			c-1.03-1.03-2.05-2.05-3.08-3.08c-0.33,2.45-1.19,4.77-2.79,6.68c1.39,0.81,2.79,1.62,4.18,2.43c0.83-2.83,2.05-5.45,3.65-7.93
			c-1.44-0.84-2.88-1.68-4.32-2.52c-2.24,3.99-4.98,7.59-8.24,10.79c-2.3,2.26,1.2,5.75,3.54,3.54c2.43-2.31,5.28-4.15,8.42-5.33
			c-0.94-1.22-1.88-2.45-2.82-3.67c-1.3,2.21-3.04,4.03-5.22,5.39c1.01,1.31,2.02,2.62,3.03,3.93c3.6-4.29,7.2-8.58,10.8-12.88
			c0.8-0.95,1.01-2.25,0.2-3.28c-0.71-0.89-2.2-1.39-3.23-0.64c-3.52,2.55-7.27,4.74-11.24,6.53c0.84,1.44,1.68,2.88,2.52,4.32
			c3.75-2.49,7.62-4.8,11.6-6.92c-0.84-1.44-1.68-2.88-2.52-4.32c-2.59,1.99-5.18,3.97-7.77,5.96c-1.07,0.82-1.64,2.15-0.9,3.42
			c0.63,1.07,2.33,1.7,3.42,0.9c2.54-1.88,5.09-3.75,7.63-5.63c-1.01-1.31-2.02-2.62-3.03-3.93c-5.11,4.46-10.22,8.92-15.33,13.38
			c-2.23,1.94,0.61,5.17,3.03,3.93c3.95-2.03,7.58-4.61,10.84-7.63c2.05-1.9-0.65-5.53-3.03-3.93c-0.89,0.6-1.78,1.2-2.67,1.8
			c1.01,1.31,2.02,2.62,3.03,3.93c6.72-5.38,13.43-10.76,20.15-16.14c-1.18-1.18-2.36-2.36-3.54-3.54
			c-3.34,3.66-6.89,7.12-10.64,10.37c-2.24,1.94,0.61,5.15,3.03,3.93c3.28-1.66,6.57-3.32,9.85-4.98c-1.14-1.14-2.28-2.28-3.42-3.42
			c-1.49,2.45-2.98,4.89-4.47,7.34c-1.4,2.29,1.29,4.42,3.42,3.42c5.43-2.54,10.87-5.09,16.3-7.63c-1.01-1.31-2.02-2.62-3.03-3.93
			c-5.14,5.57-10.27,11.15-15.41,16.72c-2.21,2.39,1.1,5.6,3.54,3.54c5.58-4.75,11.17-9.49,16.75-14.24
			c-1.18-1.18-2.36-2.36-3.54-3.54c-4.12,3.84-8.23,7.68-12.35,11.52c1.18,1.18,2.36,2.36,3.54,3.54
			c4.69-5.49,9.38-10.98,14.06-16.47c-1.31-1.01-2.62-2.02-3.93-3.03c-3.37,6.09-7.18,11.94-11.46,17.43
			c1.31,1.01,2.62,2.02,3.93,3.03c3.8-5.82,8-11.34,12.59-16.56c-1.31-1.01-2.62-2.02-3.93-3.03c-2.47,4.19-4.94,8.39-7.41,12.58
			c-1.21,2.06-2.43,4.12-3.64,6.18c-1.27,2.17-2.23,4.25-1.74,6.82c0.44,2.31,3.44,2.18,4.57,0.6c4.16-5.81,8.23-11.68,12.21-17.6
			c0.75-1.12,0.22-2.77-0.9-3.42c-1.24-0.73-2.65-0.22-3.42,0.9c-3.3,4.8-6.61,9.59-9.91,14.39c-0.74,1.08-0.24,2.83,0.9,3.42
			c3.58,1.87,5.94-1.71,7.77-4.22c2-2.75,3.89-5.57,5.67-8.47c1.47-2.39-2-5.16-3.93-3.03c-2.78,3.07-5.13,6.49-6.92,10.22
			c-1.23,2.57,1.73,4.93,3.93,3.03c3.71-3.22,6.42-7.38,8.02-12.02c0.88-2.53-2.45-3.96-4.18-2.43c-2.33,2.05-4.21,4.61-5.43,7.46
			c-0.45,1.04-0.46,2.18,0.39,3.03c0.77,0.77,2.09,0.97,3.03,0.39c5.84-3.62,10.67-8.73,13.86-14.83c1.29-2.46-1.86-5.1-3.93-3.03
			c-2.5,2.5-4.59,5.39-6.13,8.57c-1.24,2.56,1.75,4.95,3.93,3.03c4-3.52,7.29-7.82,9.64-12.59c0.55-1.11,0.4-2.45-0.64-3.23
			c-0.92-0.69-2.47-0.77-3.28,0.2c-2.1,2.52-3.9,5.23-5.28,8.21c-0.48,1.02-0.45,2.19,0.39,3.03c0.73,0.73,2.15,1.04,3.03,0.39
			c3.51-2.58,5.16-6.37,7.84-9.66c2.76-3.39,6.9-5.1,10.82-6.77c-1.01-1.31-2.02-2.62-3.03-3.93c-3.02,2.45-4.99,5.85-7.18,9.01
			c-2.34,3.37-5.08,6.42-7.8,9.48c-6.03,6.78-12.07,13.57-18.1,20.35c-3.43,3.86-6.86,7.72-10.3,11.58
			c1.31,1.01,2.62,2.02,3.93,3.03c2.27-4.34,4.55-8.68,6.82-13.03c1.29-2.46-1.86-5.1-3.93-3.03c-5.44,5.44-10.44,11.29-15.04,17.45
			c1.52,0.64,3.05,1.28,4.57,1.93c0.73-3.75,3.34-6.97,5.43-10.07c2.32-3.44,4.72-6.83,7.19-10.16c1.68-2.27-2.08-5.18-3.93-3.03
			c-6.26,7.28-12.94,14.18-20.02,20.67c-0.91,0.83-0.94,2.35-0.2,3.28c0.82,1.03,2.07,1.19,3.23,0.64c2.27-1.08,4.07-2.9,5.88-4.61
			c1.99-1.88,3.97-3.77,5.96-5.65c3.97-3.77,7.95-7.54,11.92-11.31c-1.39-0.81-2.79-1.62-4.18-2.43c-0.92,2.47-2.21,4.78-3.75,6.92
			c-0.64,0.89-0.34,2.3,0.39,3.03c0.82,0.82,2.03,0.89,3.03,0.39c3.83-1.9,7-4.78,9.41-8.29c0.99-1.45-0.1-3.14-1.49-3.67
			c-2.05-0.79-4,0.32-5.74,1.32c-1.87,1.08-3.74,2.16-5.6,3.24c-3.74,2.16-7.47,4.32-11.21,6.48c1.22,0.94,2.45,1.88,3.67,2.82
			c1.93-5.23,4.78-10.15,8.37-14.43c0.87-1.03,1.01-2.52,0-3.54c-0.93-0.93-2.62-1-3.54,0c-5.58,6.03-11.15,12.06-16.73,18.1
			c1.31,1.01,2.62,2.02,3.93,3.03c4.25-6.37,9.07-12.32,14.4-17.82c-1.31-1.01-2.62-2.02-3.93-3.03
			c-3.95,6.6-8.95,12.42-13.97,18.22c-2.08,2.41,1.22,5.83,3.54,3.54c5.58-5.53,11.5-10.72,17.77-15.46
			c-1.01-1.31-2.02-2.62-3.03-3.93c-8.54,6.85-16.62,14.26-24.19,22.17c1.31,1.01,2.62,2.02,3.93,3.03
			c6.43-9.06,12.72-18.21,18.88-27.45c1.36-2.05-1.37-4.82-3.42-3.42c-6.54,4.45-12.08,10.15-16.31,16.83
			c1.44,0.84,2.88,1.68,4.32,2.52c2.51-4.57,5.42-8.91,8.74-12.93c-1.31-1.01-2.62-2.02-3.93-3.03c-4.55,6.84-9.38,13.49-14.5,19.92
			c1.31,1.01,2.62,2.02,3.93,3.03c3.14-6.77,5.81-13.76,7.93-20.92c0.83-2.8-3.05-4.24-4.57-1.93c-2.21,3.36-4.17,6.86-5.87,10.49
			c-0.53,1.13-0.41,2.44,0.64,3.22c0.92,0.69,2.47,0.77,3.28-0.2c3.88-4.64,7.98-9.08,12.29-13.32c1.73-1.7-0.02-4.97-2.43-4.18
			c-2.59,0.85-5.18,1.71-7.77,2.56c1.05,0.8,2.11,1.61,3.16,2.41c0.03-1.42,0.66-2.66,1.68-3.64c0.73-0.71,2.33-1.74,3.33-1.34
			c-0.37-0.21-0.74-0.43-1.1-0.64c-0.01,0-0.02-0.01-0.03-0.01c-0.11-0.42-0.23-0.84-0.34-1.26c0.17-0.32,0.18-0.42,0.05-0.3
			c-0.21,0.21-0.43,0.42-0.64,0.63c-0.38,0.36-0.77,0.71-1.18,1.04c-0.81,0.68-1.69,1.28-2.58,1.84c-2.71,1.71-0.28,5.93,2.52,4.32
			c4.02-2.31,8.24-4.15,12.68-5.51c-0.64-1.52-1.28-3.05-1.93-4.57c-2.49,1.14-4.88,2.46-7.18,3.95c-2.44,1.58-0.85,5.1,1.93,4.57
			c2.42-0.46,4.84-0.93,7.27-1.39c-0.94-1.22-1.88-2.45-2.82-3.67c-1,1.8-2.13,3.52-3.44,5.1c-0.79,0.96-1.02,2.25-0.2,3.28
			c0.76,0.95,2.14,1.31,3.23,0.64c1.75-1.07,3.5-2.14,5.25-3.21c-1.01-1.31-2.02-2.62-3.03-3.93c-4,4.67-7.99,9.33-11.99,14
			c-1.94,2.27-3.89,4.54-5.83,6.81c-1.93,2.26-3.93,4.41-4.98,7.24c-0.63,1.7,1.35,3.75,3.08,3.08c7.03-2.74,13.33-7,18.34-12.65
			c1.88-2.12-0.46-5.26-3.03-3.93c-4.4,2.29-8.42,5.3-11.87,8.87c-2,2.08,0.52,5.23,3.03,3.93c2.72-1.42,5.45-2.84,8.17-4.27
			c-1.22-0.94-2.45-1.88-3.67-2.82c-1.08,5.68-3.82,10.77-8.02,14.76c-0.98,0.93-0.94,2.6,0,3.54c1.05,1.05,2.47,0.84,3.54,0
			c5.03-3.96,9.21-8.8,13.35-13.64c-1.31-1.01-2.62-2.02-3.93-3.03c-3.17,5.52-7.13,10.45-11.82,14.75c-1,0.91-0.93,2.61,0,3.54
			c1.05,1.05,2.47,0.84,3.54,0c5.15-4.09,9.94-8.6,14.33-13.5c-1.31-1.01-2.62-2.02-3.93-3.03c-3.14,6.3-7.21,12.02-12.16,17.02
			c-2.27,2.29,1.22,5.77,3.54,3.54c12.28-11.85,23.53-24.73,33.98-38.21c2.99-3.86,5.93-7.76,8.8-11.7
			c-1.44-0.84-2.88-1.68-4.32-2.52c-6.94,9.76-14.79,18.85-23.39,27.18c-2.32,2.24,1.22,5.78,3.54,3.54
			c8.91-8.63,16.99-18.08,24.18-28.19c0.78-1.1,0.2-2.78-0.9-3.42c-1.27-0.74-2.62-0.2-3.42,0.9c-9.89,13.54-20.46,26.6-31.99,38.79
			c-3.26,3.44-6.6,6.81-10.01,10.11c1.18,1.18,2.36,2.36,3.54,3.54c5.23-5.28,9.63-11.37,12.95-18.03c1.2-2.41-1.93-5.26-3.93-3.03
			c-4.39,4.9-9.18,9.41-14.33,13.5c1.18,1.18,2.36,2.36,3.54,3.54c4.98-4.57,9.24-9.91,12.61-15.77c1.37-2.39-2.03-5.25-3.93-3.03
			c-4.14,4.84-8.33,9.69-13.35,13.64c1.18,1.18,2.36,2.36,3.54,3.54c4.76-4.52,8.07-10.51,9.3-16.97c0.41-2.15-1.66-3.87-3.67-2.82
			c-2.72,1.42-5.45,2.84-8.17,4.27c1.01,1.31,2.02,2.62,3.03,3.93c3.18-3.29,6.8-5.98,10.86-8.08c-1.01-1.31-2.02-2.62-3.03-3.93
			c-4.42,4.98-9.92,8.94-16.13,11.37c1.03,1.03,2.05,2.05,3.08,3.08c0.85-2.28,2.95-4.17,4.5-5.98c1.89-2.21,3.78-4.41,5.67-6.62
			c3.78-4.41,7.56-8.83,11.34-13.24c1.76-2.06-0.47-5.49-3.03-3.93c-1.75,1.07-3.5,2.14-5.25,3.21c1.01,1.31,2.02,2.62,3.03,3.93
			c1.59-1.92,3.01-3.94,4.22-6.12c1.12-2.01-0.72-4.08-2.82-3.67c-2.42,0.46-4.84,0.93-7.27,1.39c0.64,1.52,1.28,3.05,1.93,4.57
			c2.3-1.49,4.69-2.8,7.18-3.95c2.59-1.19,0.75-5.39-1.93-4.57c-4.83,1.48-9.49,3.5-13.88,6.02c0.84,1.44,1.68,2.88,2.52,4.32
			c2.14-1.35,4.91-3.12,6.25-5.35c0.78-1.31,0.83-3.09-0.28-4.23c-1.07-1.1-2.55-1.2-3.98-1c-4.86,0.68-8.57,5.09-8.69,9.94
			c-0.04,1.57,1.64,2.91,3.16,2.41c2.59-0.85,5.18-1.71,7.77-2.56c-0.81-1.39-1.62-2.79-2.43-4.18c-4.31,4.24-8.41,8.68-12.29,13.32
			c1.31,1.01,2.62,2.02,3.93,3.03c1.71-3.64,3.66-7.14,5.87-10.49c-1.52-0.64-3.05-1.28-4.57-1.93c-2,6.75-4.46,13.34-7.42,19.73
			c-0.52,1.13-0.41,2.44,0.64,3.23c0.9,0.68,2.5,0.79,3.28-0.2c5.38-6.76,10.49-13.73,15.28-20.93c1.55-2.33-2.11-5.23-3.93-3.03
			c-3.6,4.35-6.8,9-9.52,13.95c-1.56,2.83,2.6,5.24,4.32,2.52c3.76-5.94,8.71-11.08,14.52-15.04c-1.14-1.14-2.28-2.28-3.42-3.42
			c-6.16,9.24-12.45,18.39-18.88,27.45c-1.66,2.33,1.99,5.05,3.93,3.03c7.57-7.91,15.65-15.32,24.19-22.17
			c2.19-1.76-0.76-5.64-3.03-3.93c-6.61,5-12.9,10.4-18.79,16.24c1.18,1.18,2.36,2.36,3.54,3.54c5.29-6.11,10.59-12.28,14.75-19.23
			c1.45-2.42-1.94-5.08-3.93-3.03c-5.62,5.8-10.7,12.11-15.18,18.83c-1.57,2.36,2,5.11,3.93,3.03c5.58-6.03,11.15-12.06,16.73-18.1
			c-1.18-1.18-2.36-2.36-3.54-3.54c-4.18,4.98-7.41,10.54-9.66,16.63c-0.78,2.12,1.9,3.85,3.67,2.82c3.31-1.91,6.61-3.82,9.92-5.73
			c1.58-0.91,3.16-1.83,4.74-2.74c0.86-0.5,1.72-1,2.59-1.5c0.36-0.21,0.75-0.52,1.15-0.63c0.36-0.1-0.48-0.25,0.31,0.06
			c-0.5-1.22-1-2.45-1.49-3.67c-1.93,2.82-4.56,4.98-7.61,6.5c1.14,1.14,2.28,2.28,3.42,3.42c1.8-2.51,3.18-5.23,4.25-8.12
			c0.92-2.46-2.49-4.03-4.18-2.43c-3.85,3.66-7.7,7.31-11.56,10.97c-1.93,1.83-3.85,3.66-5.78,5.48c-1.69,1.6-3.28,3.34-5.41,4.35
			c1.01,1.31,2.02,2.62,3.03,3.93c7.07-6.49,13.76-13.39,20.02-20.67c-1.31-1.01-2.62-2.02-3.93-3.03
			c-2.57,3.46-5.06,6.98-7.46,10.56c-2.25,3.35-4.88,6.82-5.67,10.87c-0.56,2.88,2.88,4.19,4.57,1.93
			c4.34-5.82,9.13-11.3,14.26-16.44c-1.31-1.01-2.62-2.02-3.93-3.03c-2.27,4.34-4.55,8.68-6.82,13.03c-1.26,2.4,1.95,5.25,3.93,3.03
			c6.03-6.78,12.07-13.57,18.1-20.35c5.86-6.59,12.08-13,17.4-20.03c2.57-3.39,4.52-7.32,7.88-10.03c0.96-0.77,0.9-2.4,0.2-3.28
			c-0.84-1.05-2.04-1.15-3.22-0.64c-4.09,1.74-8.3,3.62-11.34,6.98c-2.63,2.91-4.12,7.1-7.32,9.45c1.14,1.14,2.28,2.28,3.42,3.42
			c1.2-2.58,2.68-5.01,4.5-7.2c-1.31-1.01-2.62-2.02-3.93-3.03c-2.18,4.44-5.15,8.31-8.86,11.58c1.31,1.01,2.62,2.02,3.93,3.03
			c1.37-2.82,3.13-5.34,5.35-7.56c-1.31-1.01-2.62-2.02-3.93-3.03c-2.81,5.35-6.92,9.84-12.07,13.03c1.14,1.14,2.28,2.28,3.42,3.42
			c1.08-2.52,2.6-4.64,4.65-6.45c-1.39-0.81-2.79-1.62-4.18-2.43c-1.33,3.84-3.68,7.15-6.74,9.81c1.31,1.01,2.62,2.02,3.93,3.03
			c1.61-3.36,3.64-6.45,6.14-9.21c-1.31-1.01-2.62-2.02-3.93-3.03c-1.29,2.09-2.62,4.14-4.02,6.15c-0.68,0.97-1.37,1.94-2.07,2.89
			c-0.32,0.43-0.62,0.88-0.97,1.28c-0.84,0.97-0.59,0.02,0.46,0.57c0.3,1.14,0.6,2.28,0.9,3.42c3.3-4.8,6.61-9.59,9.91-14.39
			c-1.44-0.84-2.88-1.68-4.32-2.52c-3.98,5.93-8.05,11.8-12.21,17.6c1.52,0.2,3.05,0.4,4.57,0.6c-0.14-0.72,0.44-1.58,0.77-2.16
			c0.48-0.84,0.98-1.67,1.48-2.51c1.13-1.92,2.26-3.84,3.39-5.76c2.22-3.77,4.44-7.53,6.65-11.3c1.41-2.39-2.01-5.21-3.93-3.03
			c-4.87,5.53-9.34,11.4-13.37,17.57c-1.53,2.33,2.16,5.29,3.93,3.03c4.55-5.83,8.66-11.97,12.24-18.44
			c1.32-2.39-2.02-5.27-3.93-3.03c-4.69,5.49-9.38,10.98-14.06,16.47c-2.07,2.43,1.15,5.76,3.54,3.54
			c4.12-3.84,8.23-7.68,12.35-11.52c0.99-0.92,0.93-2.6,0-3.54c-1.02-1.02-2.5-0.88-3.54,0c-5.58,4.75-11.17,9.49-16.75,14.24
			c1.18,1.18,2.36,2.36,3.54,3.54c5.14-5.57,10.27-11.15,15.41-16.72c1.99-2.16-0.49-5.11-3.03-3.93
			c-5.43,2.54-10.87,5.09-16.3,7.63c1.14,1.14,2.28,2.28,3.42,3.42c1.49-2.45,2.98-4.89,4.47-7.34c1.37-2.25-1.28-4.5-3.42-3.42
			c-3.28,1.66-6.57,3.32-9.85,4.98c1.01,1.31,2.02,2.62,3.03,3.93c3.75-3.25,7.29-6.71,10.64-10.37c2.21-2.43-1.06-5.52-3.54-3.54
			c-6.72,5.38-13.43,10.76-20.15,16.14c-2.21,1.77,0.68,5.51,3.03,3.93c0.89-0.6,1.78-1.2,2.67-1.8c-1.01-1.31-2.02-2.62-3.03-3.93
			c-2.96,2.74-6.25,5-9.83,6.84c1.01,1.31,2.02,2.62,3.03,3.93c5.11-4.46,10.22-8.92,15.33-13.38c2.11-1.84-0.73-5.62-3.03-3.93
			c-2.54,1.88-5.09,3.75-7.63,5.63c0.84,1.44,1.68,2.88,2.52,4.32c2.59-1.99,5.18-3.97,7.77-5.96c1.07-0.82,1.64-2.15,0.9-3.42
			c-0.71-1.21-2.22-1.53-3.42-0.9c-3.98,2.12-7.85,4.42-11.6,6.92c-2.72,1.81-0.38,5.63,2.52,4.32c3.96-1.79,7.72-3.97,11.24-6.53
			c-1.01-1.31-2.02-2.62-3.03-3.93c-3.6,4.29-7.2,8.58-10.8,12.88c-0.8,0.95-1.01,2.25-0.2,3.28c0.75,0.94,2.15,1.32,3.23,0.64
			c2.89-1.81,5.28-4.24,7.01-7.18c1.03-1.75-0.71-4.47-2.82-3.67c-3.97,1.5-7.54,3.68-10.62,6.61c1.18,1.18,2.36,2.36,3.54,3.54
			c3.55-3.48,6.59-7.47,9.02-11.81c1.58-2.82-2.57-5.22-4.32-2.52c-1.82,2.82-3.21,5.9-4.15,9.13c-0.67,2.28,2.54,4.4,4.18,2.43
			c2.14-2.56,3.62-5.55,4.07-8.89c0.24-1.79-1.05-3.66-3.08-3.08c-2.15,0.62-3.61,2.04-5.37,3.33c-0.58,0.43-1.2,0.83-1.93,0.94
			c-0.64,0.1-0.69,0.05-1-0.31c-1.54-1.83-4.08-0.16-4.27,1.77c-0.45,4.56-0.91,9.12-1.36,13.67c1.67,0,3.33,0,5,0
			c0.16-3.87,0.33-7.75,0.49-11.62c-1.67,0-3.33,0-5,0c-0.16,6.78-0.68,13.56-1.63,20.29c1.64,0.22,3.27,0.44,4.91,0.66
			c-0.72-6.76-1.07-13.54-1.05-20.34c-1.67,0-3.33,0-5,0c0.21,4.18,0.05,8.39-0.59,12.53c1.64,0.22,3.27,0.44,4.91,0.66
			c-0.21-4.59-0.17-9.18,0.1-13.76c-1.67,0-3.33,0-5,0c0.18,6.4-0.51,12.74-2.08,18.95c1.64,0.22,3.27,0.44,4.91,0.66
			c-0.71-6.18-0.9-12.4-0.56-18.61c0.07-1.35-1.2-2.5-2.5-2.5c-1.46,0-2.37,1.15-2.5,2.5c-0.45,4.7-0.9,9.4-1.35,14.11
			c1.67,0,3.33,0,5,0c-0.27-2.77-0.23-5.54,0.11-8.31c-1.67,0-3.33,0-5,0c-0.39,5.64-1.19,11.23-2.38,16.76
			c1.64,0.22,3.27,0.44,4.91,0.66c-0.08-5.86,0.13-11.71,0.63-17.55c-1.67,0-3.33,0-5,0c-0.6,7.81-1.2,15.62-1.8,23.43
			c1.67,0,3.33,0,5,0c0.26-5.77,0.79-11.53,1.64-17.25c-1.64-0.22-3.27-0.44-4.91-0.66c-0.28,4.53-0.91,9-1.88,13.43
			c1.64,0.22,3.27,0.44,4.91,0.66c-0.02-3.79,0.3-7.54,1.03-11.26c-1.64-0.22-3.27-0.44-4.91-0.66c0.19,5.55,0.04,11.1-0.44,16.63
			c1.67,0,3.33,0,5,0c-0.19-4.34,0.02-8.69,0.72-12.98c-1.64-0.22-3.27-0.44-4.91-0.66c-0.17,5.98-0.35,11.96-0.52,17.94
			c-0.08,2.75,4.49,3.5,4.91,0.66c0.83-5.62,1.66-11.24,2.49-16.86c-1.61,0-3.21,0-4.82,0c0.81,4.64,0.73,9.43-0.2,14.04
			c1.64,0.22,3.27,0.44,4.91,0.66c-0.48-4.03-0.3-8.05,0.63-12c-1.64-0.22-3.27-0.44-4.91-0.66c0.3,3.99,0.06,7.95-0.82,11.85
			c1.64,0.22,3.27,0.44,4.91,0.66c0.06-3.09,0.12-6.19,0.18-9.28c0.06-3.22-4.9-3.21-5,0c-0.14,4.58-0.69,9.11-1.68,13.59
			c1.52-0.2,3.05-0.4,4.57-0.6c-0.91-1.85-1.54-3.87-1.76-5.92c-0.15-1.34-1.04-2.5-2.5-2.5c-1.35,0-2.51,1.14-2.5,2.5
			c0.01,1.8-0.18,3.53-0.59,5.27c1.64,0.22,3.27,0.44,4.91,0.66c-0.15-1.33-0.17-2.66,0.07-3.98c-1.61,0-3.21,0-4.82,0
			c0.38,2.24,0.34,4.55-0.09,6.78c1.64,0.22,3.27,0.44,4.91,0.66c-0.05-1.16-0.1-2.31-0.16-3.47c-0.14-3.2-4.96-3.24-5,0
			c-0.02,1.6-0.04,3.2-0.06,4.81c1.64-0.22,3.27-0.44,4.91-0.66c-0.22-0.59-0.22,0-0.01-0.59c-1.64-0.22-3.27-0.44-4.91-0.66
			c0.14,1.79,0.1,3.57-0.12,5.35c1.67,0,3.33,0,5,0c-0.03-1.13-0.05-2.25-0.08-3.38c-1.67,0-3.33,0-5,0c0.1,1.8,0.21,3.59,0.31,5.39
			c0.16,2.74,4.15,3.49,4.91,0.66c0.44-1.63,0.7-3.3,0.83-4.99c-1.67,0-3.33,0-5,0c0,3.08,0,6.17,0,9.25c0,3.23,4.84,3.2,5,0
			c0.19-3.86,0.71-7.66,1.57-11.43c-1.64-0.22-3.27-0.44-4.91-0.66c0.23,4.62,0.21,9.24-0.06,13.86c1.67,0,3.33,0,5,0
			c0.29-6.04,1.68-11.94,4.01-17.53c-1.61,0-3.21,0-4.82,0c0.88,5.77,0.96,11.65,0.39,17.45c1.67,0,3.33,0,5,0
			c0.51-5.76,1.02-11.52,1.53-17.28c0.12-1.35-1.23-2.5-2.5-2.5c-1.47,0-2.36,1.15-2.5,2.5c-0.65,6.2-1.3,12.41-1.95,18.61
			c1.67,0,3.33,0,5,0c0.61-8.16,1.26-16.34,3.58-24.22c-1.64-0.22-3.27-0.44-4.91-0.66c0.46,6.63,0.4,13.28-0.17,19.9
			c-0.24,2.79,4.39,3.43,4.91,0.66c1.33-7.04,2.66-14.08,3.99-21.12c-1.61-0.44-3.21-0.89-4.82-1.33
			c-1.15,8.23-2.3,16.45-3.45,24.68c-0.19,1.34,0.33,2.68,1.75,3.08c1.27,0.35,2.76-0.43,3.08-1.75c1.92-8.05,3.99-16.06,6.2-24.03
			c-1.64-0.22-3.27-0.44-4.91-0.66c0.64,6.21-0.68,12.27-2.06,18.29c-0.61,2.67,3.17,4.52,4.57,1.93c4.72-8.75,7.15-18.41,9.48-28
			c0.65-2.66-3.21-4.52-4.57-1.93c-2.81,5.36-5.61,10.73-8.4,16.1c-2.63,5.07-6.03,10.3-6.35,16.15c-0.06,1.09,0.82,2.13,1.84,2.41
			c1.14,0.31,2.16-0.24,2.82-1.15c5.68-7.75,11.79-15.19,18.26-22.3c-1.31-1.01-2.62-2.02-3.93-3.03
			c-3.75,5.66-8.44,10.73-13.85,14.84c1.14,1.14,2.28,2.28,3.42,3.42c2.85-6.02,5.44-12.15,7.79-18.38
			c1.03-2.74-3.12-4.24-4.57-1.93c-1.45,2.31-2.89,4.61-4.34,6.92c-1.4,2.23,1.3,4.51,3.42,3.42c4.43-2.28,7.72-6.59,8.72-11.48
			c0.48-2.37-2.32-4.28-4.18-2.43c-2.86,2.85-5.72,5.69-8.58,8.54c1.42,0.59,2.85,1.18,4.27,1.77c-0.05-2.58,0.43-5.11,1.55-7.45
			c-1.52-0.64-3.05-1.28-4.57-1.93c-0.89,3.22-1.77,6.43-2.66,9.65c1.61,0.44,3.21,0.89,4.82,1.33c0.38-2.43,0.56-4.85,0.44-7.31
			c-0.11-2.22-2.63-3.23-4.27-1.77c-1.66,1.48-2.45,3.4-2.71,5.57c1.67,0,3.33,0,5,0c0-2.7-0.01-5.39-0.01-8.09
			c0-1.23-0.95-2.31-2.17-2.46c-1.1-0.13-2.57,0.54-2.74,1.79c-0.5,3.7-1.26,7.36-2.26,10.96c1.64,0.22,3.27,0.44,4.91,0.66
			c-0.37-5.83-0.47-11.66-0.29-17.49c0.04-1.35-1.18-2.5-2.5-2.5c-1.47,0-2.36,1.15-2.5,2.5c-0.33,3.22-0.91,6.4-1.7,9.54
			c1.64,0.22,3.27,0.44,4.91,0.66c-0.02-4.12-0.04-8.24-0.06-12.35c-0.01-1.35-1.14-2.5-2.5-2.5c-1.48,0-2.35,1.15-2.5,2.5
			c-0.24,2.18-0.3,4.36-0.16,6.55c0.2,3.27,4.63,3.15,5,0c0.28-2.4,0.78-4.76,1.43-7.09c-1.39,0.37-2.79,0.74-4.18,1.1
			c1.76,2.26,2.96,4.9,3.67,7.67c0.72,2.77,4.84,2.13,4.91-0.66c0.14-5.41,0.68-10.78,1.68-16.1c-1.61,0-3.21,0-4.82,0
			c0.98,2.74,1.4,5.65,0.97,8.54c1.61,0,3.21,0,4.82,0c-1.27-4.03-1.71-8.15-1.37-12.36c-1.64,0.22-3.27,0.44-4.91,0.66
			c0.84,2.39,1.25,4.8,1.22,7.33c1.67,0,3.33,0,5,0c-0.01-5.1-0.02-10.21-0.03-15.31c-1.67,0-3.33,0-5,0
			c0.9,8.2,1.44,16.43,1.61,24.68c0.07,3.22,4.94,3.22,5,0c0.1-5.17,0.2-10.34,0.3-15.51C469.1,517.87,464.1,517.87,464.04,521.09
			L464.04,521.09z"/>
	</g>
</g>
<g>
	<g>
		<path class="st6" d="M466.18,560.63c-0.44,0.31-0.88,0.62-1.31,0.93c1.14,1.14,2.28,2.28,3.42,3.42c2.1-2.89,4.08-5.87,5.93-8.92
			c1.69-2.78-2.54-5.17-4.32-2.52c-0.63,0.93-1.28,1.84-2,2.7c-0.42,0.5-1.37,1.98-2.02,2.19c0.47-0.15-0.62-0.27-0.74-0.31
			c-0.36-0.14-0.7-0.31-1.04-0.49c-0.66-0.35-1.29-0.76-1.86-1.24c-2.56-2.15-4.16-5.29-4.23-8.64c-1.05,0.8-2.11,1.61-3.16,2.41
			c17.69,2.4,31.9-9.86,43.46-21.59c3.45-3.5,6.77-7.11,9.97-10.83c-1.39-0.81-2.79-1.62-4.18-2.43c-0.84,3.02-3.05,5.27-5.27,7.37
			c-2.75,2.6-5.46,5.18-7.95,8.04c-5.4,6.19-10.34,12.8-15.44,19.24c-3.05,3.85-6.1,7.71-9.15,11.56c-0.84,1.06-1.03,2.5,0,3.54
			c0.97,0.97,2.56,0.94,3.54,0c2.09-2.03,4.18-4.07,6.27-6.1c-1.31-1.01-2.62-2.02-3.93-3.03c-1.1,1.73-2.53,3.18-4.26,4.29
			c-2.37,1.52-0.88,5.27,1.93,4.57c2.14-0.53,4.04-1.63,5.59-3.2c2-2.03-0.54-5.32-3.03-3.93c-1.44,0.81-2.43,2.1-2.87,3.69
			c-0.38,1.37,0.47,2.62,1.75,3.08c2.19,0.78,4.27-0.23,5.59-1.98c-1.44-0.84-2.88-1.68-4.32-2.52c-0.37,0.69-0.74,1.38-1.11,2.07
			c-0.53,0.98-0.41,2.22,0.39,3.03c0.72,0.72,2.16,1.05,3.03,0.39c4.55-3.41,8.04-7.79,11.59-12.17c3.94-4.87,7.88-9.74,11.82-14.62
			c2.02-2.5-1.04-5.62-3.54-3.54c-3.69,3.09-7.38,6.18-11.07,9.26c-3.32,2.78-6.9,5.42-9.98,8.47c-1.41,1.4-2.59,2.99-3.31,4.85
			c-0.55,1.43-0.56,3.09-1.46,4.35c-0.67,0.94-1.3,1.7-1.27,2.92c0.03,1.24,0.89,2.33,2.06,2.68c2.58,0.78,4.55-1.7,3.47-4.06
			c-0.55-1.2-2.37-1.57-3.42-0.9c-1.58,1.02-3.01,2.22-4.2,3.68c-1.56,1.89-0.13,4.77,2.43,4.18c2.01-0.46,3.74-2.16,4.03-4.24
			c0.16-1.12-0.11-2.21-1.15-2.82c-0.94-0.55-2.27-0.41-3.03,0.39c-1.58,1.68-3.15,3.35-4.73,5.03c-2.21,2.36,1.15,5.69,3.54,3.54
			c2.34-2.11,4.31-4.6,5.85-7.35c1.35-2.42-1.94-5.16-3.93-3.03c-2.39,2.57-4.49,5.39-6.24,8.42c-1.49,2.58,1.82,4.79,3.93,3.03
			c2.58-2.15,3.97-5.16,4.36-8.45c0.22-1.82-2.32-3.21-3.76-2.16c-2.41,1.76-4.37,3.95-5.63,6.67c-1.34,2.91,2.49,5.22,4.32,2.52
			c1.34-1.98,2.67-3.96,4.01-5.94c-1.55-0.42-3.11-0.84-4.66-1.26c-0.02,0.6-0.1,1.22-0.34,1.78c-0.69,1.63,0.07,3.84,2.16,3.76
			c3.09-0.11,6.01-1.37,8.08-3.69c-1.18-1.18-2.36-2.36-3.54-3.54c-4.89,6.07-9.78,12.13-14.67,18.2c-1.04,1.29-1.87,2.4-3.32,3.21
			c-1.32,0.73-2.45,1.67-3.38,2.85c-1.93,2.45-2.88,5.45-3.69,8.42c-0.71,2.59,2.34,3.92,4.18,2.43c2.44-1.97,4.22-4.62,6.06-7.13
			c2.12-2.89,4.23-5.78,6.35-8.68c4.18-5.72,8.36-11.43,12.55-17.15c1.26-1.72-0.84-4.41-2.82-3.67
			c-10.16,3.79-15.84,13.39-20.68,22.49c1.44,0.84,2.88,1.68,4.32,2.52c1.73-4.09,3.1-8.27,4.01-12.62
			c0.57-2.71-3.06-4.44-4.57-1.93c-2.37,3.96-3.75,8.28-4.28,12.85c1.67,0,3.33,0,5,0c0.55-8.51,3.47-16.68,8.26-23.71
			c-1.52-0.64-3.05-1.28-4.57-1.93c-1.44,4.04-2.88,8.08-4.32,12.12c-0.95,2.68,3.23,4.39,4.57,1.93c1.29-2.36,2.57-4.72,3.86-7.09
			c-1.44-0.84-2.88-1.68-4.32-2.52c-1.13,2.38-2.27,4.76-3.61,7.03c-1.35,2.28-2.97,4.22-4.69,6.21c-1.8,2.08-3.18,4.3-4.07,6.92
			c-0.86,2.52-1.23,5.17-1.58,7.79c1.64,0.22,3.27,0.44,4.91,0.66c0.42-6.72,0.84-13.43,1.27-20.15c-1.67,0-3.33,0-5,0
			c-0.13,2.2-0.27,4.4-0.4,6.61c1.67,0,3.33,0,5,0c-0.06-2.94-0.13-5.88-0.19-8.82c-0.07-3.22-4.93-3.22-5,0
			c-0.08,3.8-0.16,7.6-0.24,11.39c1.67,0,3.33,0,5,0c-0.13-3.02-0.25-6.04-0.38-9.06c-0.06-1.41-0.14-2.82-0.17-4.22
			c-0.02-0.72-0.15-1.9,0.35-2.51c-1.18,0-2.36,0-3.54,0c2.65,3,3.82,6.91,3.53,10.87c1.67,0,3.33,0,5,0
			c-0.08-4.95,1.13-9.78,0.32-14.73c-0.76-4.66-2.73-9.14-3.98-13.68c-1.25-4.57-2.23-9.24-2.4-13.99c-0.18-4.98,0.48-10,0.9-14.95
			c0.36-4.2,0.68-8.44,2.08-12.45c1.26-3.6,3.67-6.56,6.88-8.59c7.7-4.87,17.23-4.31,25.96-4.09c5.71,0.14,11.42,0.29,17.13,0.43
			c5.65,0.14,11.38,0.55,16.96-0.59c-0.81-1.39-1.62-2.79-2.43-4.18c-2.84,2.27-5.91,4.22-9.12,5.93c-2.85,1.51-0.33,5.8,2.52,4.32
			c6.19-3.21,13.31-6.91,20.5-5.37c-0.37-1.39-0.74-2.79-1.1-4.18c-4.67,4.48-10.24,7.94-16.34,10.08c0.81,1.39,1.62,2.79,2.43,4.18
			c2.41-2.22,4.4-4.9,5.8-7.87c1.25-2.66-1.69-4.78-3.93-3.03c-6.2,4.85-10.47,11.62-14.58,18.22c1.52,0.64,3.05,1.28,4.57,1.93
			c1.93-4.78,3.86-9.56,5.79-14.33c0.68-1.69-1.39-3.75-3.08-3.08c-2.01,0.8-3.41,2.11-4.75,3.77c-0.73,0.91-2.2,3.18-3.61,2.9
			c0.58,1.03,1.16,2.05,1.75,3.08c0.77-1.94,2.2-3.62,3.93-4.77c2.69-1.78,0.35-5.78-2.52-4.32c-3.05,1.55-6.09,3.11-9.14,4.66
			c-1.45,0.74-2.9,1.48-4.35,2.22c-1.12,0.57-2.54,1.48-3.85,1.18c0.2,1.52,0.4,3.05,0.6,4.57c6.2-4.4,12.8-8.19,19.72-11.33
			c1.57-0.71,1.46-2.83,0.51-3.93c-2.96-3.39-8.68-1.83-12.48-1.28c-4.79,0.7-9.52,1.72-14.18,3.01c-2.63,0.73-2.22,5.17,0.66,4.91
			c4.96-0.44,9.92-0.88,14.87-1.31c-0.59-1.42-1.18-2.85-1.77-4.27c-3.49,2.72-7.79,4.22-11.9,5.7c-4.39,1.59-8.85,3.2-12.69,5.9
			c-2.6,1.83-0.33,5.9,2.52,4.32c5.39-2.99,10.77-5.98,16.16-8.97c2.46-1.37,0.81-5.39-1.93-4.57c-7.99,2.4-15.31,6.48-21.59,11.97
			c-1.02,0.89-0.91,2.63,0,3.54c1.04,1.04,2.48,0.85,3.54,0c4.34-3.49,8.68-6.98,13.02-10.48c2.2-1.77-0.7-5.54-3.03-3.93
			c-5.18,3.57-10.37,7.15-15.55,10.72c1.01,1.31,2.02,2.62,3.03,3.93c3.35-3.86,6.75-7.78,11.29-10.26
			c-0.84-1.44-1.68-2.88-2.52-4.32c-4.4,2.89-8.66,5.96-12.8,9.21c-1.98,1.56-3.94,3.16-5.85,4.8c-0.99,0.84-1.97,1.7-2.93,2.57
			c-0.51,0.46-1.01,0.94-1.53,1.39c-0.06,0.05-0.36,0.27-0.41,0.33c-0.39,0.45-0.38-0.53,0.48,0.12c0.3,0.3,0.6,0.6,0.9,0.9
			c-0.69-1.01-0.41-3.23-0.34-4.41c0.09-1.49,0.41-2.95,0.88-4.37c0.88-2.7,2.51-5.27,4.8-6.99c6.34-4.77,15.19-1.33,22.39-1.86
			c4.25-0.31,8.46-1.55,11.5-4.7c2.23-2.32-1.29-5.85-3.54-3.54c-2.36,2.44-6.74,2.09-9.84,2.17c-4.55,0.13-9.1-0.01-13.64-0.37
			c0.22,1.64,0.44,3.27,0.66,4.91c5.25-1.87,10.71-2.57,16.27-2.1c-0.22-1.64-0.44-3.27-0.66-4.91
			c-10.78,3.76-20.57,10.05-28.37,18.4c-2.2,2.35,1.33,5.89,3.54,3.54c7.21-7.71,16.19-13.64,26.16-17.11
			c2.71-0.95,2.16-4.67-0.66-4.91c-5.94-0.51-11.98,0.28-17.6,2.28c-2.69,0.96-2.18,4.68,0.66,4.91c5.02,0.41,10.07,0.52,15.1,0.32
			c4.19-0.17,8.81-0.38,11.91-3.59c-1.18-1.18-2.36-2.36-3.54-3.54c-3.99,4.13-10.48,3.43-15.67,2.97
			c-6.55-0.58-13.18-0.63-18.49,3.8c-4.24,3.54-6.47,9.1-6.85,14.51c-0.18,2.49-0.33,6.8,2.17,8.2c3.42,1.91,6.73-2.39,8.97-4.34
			c5.95-5.19,12.25-9.94,18.85-14.27c2.68-1.76,0.32-5.87-2.52-4.32c-4.92,2.68-8.68,6.86-12.31,11.04c-0.81,0.94-1,2.27-0.2,3.28
			c0.73,0.91,2.18,1.36,3.23,0.64c5.18-3.57,10.37-7.15,15.55-10.72c-1.01-1.31-2.02-2.62-3.03-3.93
			c-4.34,3.49-8.68,6.98-13.02,10.48c1.18,1.18,2.36,2.36,3.54,3.54c5.61-4.91,12.24-8.54,19.38-10.69
			c-0.64-1.52-1.28-3.05-1.93-4.57c-5.39,2.99-10.77,5.98-16.16,8.97c0.84,1.44,1.68,2.88,2.52,4.32c3.84-2.7,8.24-4.21,12.62-5.8
			c4.62-1.68,9.08-3.53,12.98-6.58c1.68-1.31,0.3-4.45-1.77-4.27c-4.96,0.44-9.92,0.88-14.87,1.31c0.22,1.64,0.44,3.27,0.66,4.91
			c4.05-1.13,8.15-2.04,12.3-2.72c1.97-0.32,3.95-0.59,5.93-0.79c1.13-0.11,2.73-0.45,3.56,0.49c0.17-1.31,0.34-2.62,0.51-3.93
			c-6.92,3.14-13.52,6.93-19.72,11.33c-1.63,1.16-1.66,4.05,0.6,4.57c3.9,0.89,7.43-1.54,10.75-3.24c3.48-1.78,6.97-3.55,10.45-5.33
			c-0.84-1.44-1.68-2.88-2.52-4.32c-2.9,1.92-4.95,4.53-6.23,7.76c-0.47,1.19,0.53,2.83,1.75,3.08c2.71,0.53,5.1-0.55,7.01-2.47
			c1.25-1.25,2.3-3.52,4.01-4.21c-1.03-1.03-2.05-2.05-3.08-3.08c-1.93,4.78-3.86,9.56-5.79,14.33c-0.46,1.14,0.41,2.53,1.45,2.95
			c1.17,0.47,2.45,0.06,3.12-1.02c3.91-6.28,7.9-12.59,13.8-17.21c-1.31-1.01-2.62-2.02-3.93-3.03c-1.24,2.62-2.88,4.89-5.02,6.86
			c-1.79,1.65,0.07,5.01,2.43,4.18c6.93-2.44,13.24-6.28,18.54-11.37c1.31-1.25,0.74-3.78-1.1-4.18
			c-8.67-1.85-16.84,1.98-24.35,5.88c0.84,1.44,1.68,2.88,2.52,4.32c3.6-1.91,6.95-4.17,10.13-6.71c0.85-0.68,0.9-2.15,0.39-3.03
			c-0.58-1-1.73-1.37-2.82-1.15c-4.94,1.01-10.13,0.55-15.13,0.42c-5.21-0.13-10.43-0.26-15.64-0.4
			c-9.57-0.24-19.66-0.88-28.46,3.58c-3.75,1.9-7.06,4.76-9.22,8.39c-2.34,3.93-3.21,8.46-3.74,12.94c-0.58,4.9-0.98,9.86-1.3,14.78
			c-0.33,5.09,0.12,10.13,1.14,15.12c1.11,5.42,2.96,10.59,4.52,15.87c0.8,2.71,1.05,5.3,0.87,8.12c-0.19,2.88-0.63,5.73-0.58,8.62
			c0.05,3.25,4.77,3.18,5,0c0.39-5.29-1.5-10.45-4.99-14.41c-0.83-0.94-2.72-1-3.54,0c-2.12,2.6-1.83,5.65-1.7,8.8
			c0.15,3.51,0.29,7.02,0.44,10.53c0.13,3.21,4.93,3.23,5,0c0.08-3.8,0.16-7.6,0.24-11.39c-1.67,0-3.33,0-5,0
			c0.06,2.94,0.13,5.88,0.19,8.82c0.07,3.24,4.8,3.2,5,0c0.13-2.2,0.27-4.4,0.4-6.61c0.2-3.21-4.8-3.2-5,0
			c-0.42,6.72-0.84,13.43-1.27,20.15c-0.17,2.77,4.53,3.47,4.91,0.66c0.34-2.49,0.68-4.99,1.45-7.39c0.76-2.38,2.12-4.23,3.76-6.07
			c3.54-3.99,5.96-8.51,8.24-13.3c0.58-1.22,0.34-2.7-0.9-3.42c-1.14-0.67-2.77-0.29-3.42,0.9c-1.29,2.36-2.57,4.72-3.86,7.09
			c1.52,0.64,3.05,1.28,4.57,1.93c1.44-4.04,2.88-8.08,4.32-12.12c0.41-1.16-0.37-2.52-1.45-2.95c-1.2-0.48-2.4-0.03-3.12,1.02
			c-5.29,7.77-8.33,16.87-8.94,26.23c-0.09,1.35,1.21,2.5,2.5,2.5c1.48,0,2.34-1.15,2.5-2.5c0.42-3.66,1.71-7.17,3.6-10.33
			c-1.52-0.64-3.05-1.28-4.57-1.93c-0.82,3.9-1.96,7.75-3.51,11.43c-0.52,1.24-0.37,2.68,0.9,3.42c1.13,0.66,2.78,0.3,3.42-0.9
			c4.12-7.74,8.96-16.94,17.7-20.19c-0.94-1.22-1.88-2.45-2.82-3.67c-4.08,5.58-8.17,11.16-12.25,16.75
			c-2.02,2.76-4.03,5.51-6.05,8.27c-1.79,2.45-3.48,5-5.86,6.93c1.39,0.81,2.79,1.62,4.18,2.43c0.64-2.35,1.29-5.04,2.97-6.89
			c1.03-1.14,2.45-1.62,3.63-2.57c1.23-1,2.15-2.36,3.14-3.59c4.68-5.81,9.37-11.62,14.05-17.42c0.85-1.05,1.03-2.51,0-3.54
			c-0.92-0.92-2.63-1.01-3.54,0c-1.21,1.34-2.73,2.16-4.55,2.22c0.72,1.25,1.44,2.51,2.16,3.76c0.6-1.41,0.97-2.76,1.02-4.31
			c0.09-2.63-3.35-3.2-4.66-1.26c-1.34,1.98-2.67,3.96-4.01,5.94c1.44,0.84,2.88,1.68,4.32,2.52c0.88-1.91,2.12-3.63,3.83-4.88
			c-1.25-0.72-2.51-1.44-3.76-2.16c-0.24,1.98-1.4,3.67-2.9,4.92c1.31,1.01,2.62,2.02,3.93,3.03c1.55-2.68,3.35-5.15,5.46-7.41
			c-1.31-1.01-2.62-2.02-3.93-3.03c-1.34,2.41-3.02,4.49-5.06,6.34c1.18,1.18,2.36,2.36,3.54,3.54c1.58-1.68,3.15-3.35,4.73-5.03
			c-1.39-0.81-2.79-1.62-4.18-2.43c-0.08,0.58-0.04,0.63-0.54,0.74c0.81,1.39,1.62,2.79,2.43,4.18c0.93-1.13,1.96-2.1,3.19-2.9
			c-1.14-0.3-2.28-0.6-3.42-0.9c0.02,0.05,0.05,0.1,0.07,0.15c-0.08-0.64-0.17-1.28-0.25-1.93c-0.01,0.04-0.03,0.08-0.04,0.12
			c0.38-0.5,0.77-1,1.15-1.49c0.57,0,1.14,0.01,1.7,0.01c0.3,0.3,0.6,0.6,0.9,0.9c-0.03-0.06-0.05-0.11-0.08-0.17
			c0.11,0.42,0.23,0.84,0.34,1.26c-0.29,0.63-0.32,0.79-0.08,0.49c0.12-0.13,0.24-0.27,0.34-0.41c0.25-0.31,0.49-0.62,0.67-0.97
			c0.36-0.67,0.63-1.4,0.83-2.14c0.33-1.21,0.48-2.42,1.13-3.51c1.47-2.46,4.16-4.24,6.31-6.04c5.47-4.58,10.94-9.16,16.41-13.74
			c-1.18-1.18-2.36-2.36-3.54-3.54c-3.84,4.74-7.68,9.49-11.51,14.23c-3.34,4.12-6.61,8.57-10.89,11.78
			c1.14,1.14,2.28,2.28,3.42,3.42c0.37-0.69,0.74-1.38,1.11-2.07c0.64-1.19,0.3-2.72-0.9-3.42c-1.28-0.75-2.61-0.18-3.42,0.9
			c0.24-0.32,0.51-0.16,0.06-0.32c0.58,1.03,1.16,2.05,1.75,3.08c0.12-0.42,0.19-0.49,0.57-0.71c-1.01-1.31-2.02-2.62-3.03-3.93
			c-0.97,0.98-2.05,1.58-3.38,1.91c0.64,1.52,1.28,3.05,1.93,4.57c2.46-1.58,4.49-3.61,6.06-6.08c1.55-2.43-1.92-4.98-3.93-3.03
			c-2.09,2.03-4.18,4.07-6.27,6.1c1.18,1.18,2.36,2.36,3.54,3.54c5.48-6.92,10.96-13.85,16.44-20.77c2.58-3.26,5.13-6.54,7.85-9.68
			c2.54-2.94,5.29-5.6,8.11-8.26c2.9-2.74,5.6-5.78,6.69-9.71c0.64-2.3-2.5-4.38-4.18-2.43c-5.28,6.14-10.88,12.04-16.86,17.5
			c-5.59,5.11-11.82,9.84-19.1,12.22c-4.03,1.32-8.37,1.99-12.61,1.42c-1.54-0.21-3.2,0.61-3.16,2.41
			c0.11,5.29,2.78,10.15,7.04,13.24c2.16,1.57,5.31,3.13,7.94,1.92c1.35-0.62,2.35-1.85,3.29-2.96c1.05-1.23,2.02-2.53,2.93-3.88
			c-1.44-0.84-2.88-1.68-4.32-2.52c-1.86,3.05-3.83,6.03-5.93,8.92c-1.45,2,1.42,4.83,3.42,3.42c0.44-0.31,0.88-0.62,1.31-0.93
			c1.1-0.78,1.62-2.18,0.9-3.42C468.96,560.44,467.29,559.84,466.18,560.63L466.18,560.63z"/>
	</g>
</g>
<g>
	<g>
		<path class="st6" d="M459.29,507.96c1.77-2.04,3.74-3.84,5.98-5.35c-1.01-1.31-2.02-2.62-3.03-3.93
			c-2.42,2.36-4.47,5.13-5.96,8.16c-0.75,1.52-1.39,3.11-1.88,4.74c-0.23,0.78-0.43,1.56-0.6,2.35c-0.06,0.28-0.3,0.88-0.22,1.14
			c0.1,0.34-0.54,0.02,0.47-0.17c0.44,0,0.89,0,1.33,0c0.06,0.02,0.12,0.03,0.18,0.05c0,1.44,0,2.88,0,4.32
			c10.72-7.31,22.01-13.74,33.77-19.21c1.85-0.86,1.39-3.35,0-4.32c-0.28-0.2-0.5-0.44-0.77-0.66c-0.47-0.37,0.02-0.18-0.13,0.33
			c-0.01,0.03-0.42,0.52-0.42,0.53c0,0.01,2.79,0.14,3.04,0.16c2.69,0.26,5.38,0.51,8.07,0.77c5.38,0.51,10.76,1.03,16.14,1.54
			c-0.59-1.42-1.18-2.85-1.77-4.27c-4.17,4.58-9.13,8.22-14.73,10.85c-1.22,0.57-1.53,2.33-0.9,3.42c0.73,1.25,2.19,1.47,3.42,0.9
			c5.95-2.79,11.32-6.77,15.74-11.63c1.54-1.69,0.38-4.06-1.77-4.27c-7.01-0.67-14.02-1.34-21.04-2.01c-2.75-0.26-6.5-1.3-8.97,0.37
			c-1.48,1-2.12,2.9-1.6,4.6c0.49,1.6,1.81,2.74,3.14,3.67c0-1.44,0-2.88,0-4.32c-11.76,5.48-23.06,11.9-33.77,19.21
			c-1.66,1.13-1.54,3.16,0,4.32c2.12,1.59,4.51-0.41,5.23-2.42c0.61-1.71,0.79-3.56,1.41-5.29c1.28-3.55,3.42-6.72,6.11-9.35
			c1.99-1.94-0.63-5.54-3.03-3.93c-2.59,1.74-4.95,3.77-7,6.13c-0.88,1.02-1,2.53,0,3.54C456.66,508.86,458.41,508.99,459.29,507.96
			L459.29,507.96z"/>
	</g>
</g>
<g>
	<g>
		<path class="st6" d="M466.48,503.73c3.22,0,3.22-5,0-5C463.27,498.73,463.26,503.73,466.48,503.73L466.48,503.73z"/>
	</g>
</g>
<g>
	<g>
		<path class="st6" d="M454.87,511.98c3.22,0,3.22-5,0-5C451.65,506.98,451.65,511.98,454.87,511.98L454.87,511.98z"/>
	</g>
</g>
<g>
	<g>
		<path class="st6" d="M447.67,502.51c-0.12,1.03-0.55,1.98-1.1,2.84c1.55,0.42,3.11,0.84,4.66,1.26c-0.03-1.25,0.28-2.47,1.09-3.52
			c1.07-1.38,2.76-2.34,2.51-4.39c-0.23-1.92-1.93-3.06-3.76-2.16c-1.01,0.5-1.69,1.43-1.98,2.51c-0.33,1.19,0.31,2.49,1.45,2.95
			c1.25,0.5,2.35,0,3.12-1.02c1.39-1.84,3.51-2.98,5.74-3.47c2.83-0.62,2.08-4.83-0.66-4.91c-1.48-0.04-2.88,0.33-4.16,1.06
			c-2.8,1.58-0.3,5.87,2.52,4.32c4.02-2.22,8.28-3.27,12.79-3.93c-0.44-1.61-0.89-3.21-1.33-4.82c-2.24,0.74-4.5,1.17-6.85,1.23
			c0.22,1.64,0.44,3.27,0.66,4.91c0.61-0.24,1.21-0.48,1.82-0.71c1.26-0.49,2.13-1.67,1.75-3.08c-0.36-1.29-1.77-2.12-3.08-1.75
			c-0.87,0.25-1.74,0.5-2.61,0.76c-3.08,0.89-1.77,5.72,1.33,4.82c0.87-0.25,1.74-0.5,2.61-0.76c-0.44-1.61-0.89-3.21-1.33-4.82
			c-0.61,0.24-1.21,0.48-1.82,0.71c-1.16,0.46-1.99,1.43-1.79,2.74c0.18,1.19,1.19,2.2,2.46,2.17c2.78-0.08,5.54-0.53,8.18-1.41
			c1.28-0.43,2.12-1.73,1.75-3.08c-0.39-1.44-1.73-1.94-3.08-1.75c-4.94,0.72-9.58,2-13.98,4.43c0.84,1.44,1.68,2.88,2.52,4.32
			c0.55-0.31,1.01-0.39,1.64-0.38c-0.22-1.64-0.44-3.27-0.66-4.91c-3.58,0.78-6.53,2.88-8.73,5.77c1.52,0.64,3.05,1.28,4.57,1.93
			c-0.13,0.14-0.24,0.31-0.31,0.48c-1.25-0.72-2.51-1.44-3.76-2.16c0.11-0.15,0.2-0.3,0.28-0.47c-0.14,0.15-0.29,0.3-0.44,0.44
			c-0.22,0.22-0.46,0.42-0.67,0.65c-0.6,0.66-1.16,1.4-1.56,2.2c-0.81,1.59-1.24,3.31-1.2,5.09c0.05,2.51,3.34,3.37,4.66,1.26
			c1.04-1.66,1.56-3.43,1.78-5.37c0.16-1.34-1.26-2.5-2.5-2.5C448.69,500.01,447.83,501.16,447.67,502.51L447.67,502.51z"/>
	</g>
</g>
<g>
	<g>
		<path class="st6" d="M459,496.37c3.22,0,3.22-5,0-5C455.78,491.37,455.78,496.37,459,496.37L459,496.37z"/>
	</g>
</g>
<g>
	<g>
		<path class="st6" d="M465.06,494.44c3.22,0,3.22-5,0-5C461.85,489.44,461.84,494.44,465.06,494.44L465.06,494.44z"/>
	</g>
</g>
<g>
	<g>
		<path class="st6" d="M447.52,508.76c3.22,0,3.22-5,0-5C444.3,503.76,444.29,508.76,447.52,508.76L447.52,508.76z"/>
	</g>
</g>
<g>
	<g>
		<path class="st6" d="M447.26,511.73c3.22,0,3.22-5,0-5C444.04,506.73,444.04,511.73,447.26,511.73L447.26,511.73z"/>
	</g>
</g>
<g>
	<g>
		<path class="st6" d="M447.13,510.95c3.22,0,3.22-5,0-5C443.91,505.95,443.91,510.95,447.13,510.95L447.13,510.95z"/>
	</g>
</g>
<g>
	<g>
		<path class="st6" d="M446.87,514.44c3.22,0,3.22-5,0-5C443.65,509.44,443.65,514.44,446.87,514.44L446.87,514.44z"/>
	</g>
</g>
<g>
	<g>
		<path class="st6" d="M446.35,513.66c3.22,0,3.22-5,0-5C443.14,508.66,443.13,513.66,446.35,513.66L446.35,513.66z"/>
	</g>
</g>
<g>
	<g>
		<path class="st6" d="M446.48,516.37c3.22,0,3.22-5,0-5C443.27,511.37,443.26,516.37,446.48,516.37L446.48,516.37z"/>
	</g>
</g>
<g>
	<g>
		<path class="st6" d="M445.97,518.31c3.22,0,3.22-5,0-5C442.75,513.31,442.75,518.31,445.97,518.31L445.97,518.31z"/>
	</g>
</g>
<g>
	<g>
		<path class="st6" d="M446.1,521.27c3.22,0,3.22-5,0-5C442.88,516.27,442.87,521.27,446.1,521.27L446.1,521.27z"/>
	</g>
</g>
<g>
	<g>
		<path class="st6" d="M446.35,523.73c3.22,0,3.22-5,0-5C443.14,518.73,443.13,523.73,446.35,523.73L446.35,523.73z"/>
	</g>
</g>
<g>
	<g>
		<path class="st6" d="M446.23,525.27c3.22,0,3.22-5,0-5C443.01,520.27,443,525.27,446.23,525.27L446.23,525.27z"/>
	</g>
</g>
<g>
	<g>
		<path class="st6" d="M446.61,527.47c3.22,0,3.22-5,0-5C443.4,522.47,443.39,527.47,446.61,527.47L446.61,527.47z"/>
	</g>
</g>
<g>
	<g>
		<path class="st6" d="M446.35,529.79c3.22,0,3.22-5,0-5C443.14,524.79,443.13,529.79,446.35,529.79L446.35,529.79z"/>
	</g>
</g>
<g>
	<g>
		<path class="st6" d="M446.48,531.6c3.22,0,3.22-5,0-5C443.27,526.6,443.26,531.6,446.48,531.6L446.48,531.6z"/>
	</g>
</g>
<g>
	<g>
		<path class="st6" d="M446.48,532.76c3.22,0,3.22-5,0-5C443.27,527.76,443.26,532.76,446.48,532.76L446.48,532.76z"/>
	</g>
</g>
<g>
	<g>
		<path class="st6" d="M446.35,534.56c3.22,0,3.22-5,0-5C443.14,529.56,443.13,534.56,446.35,534.56L446.35,534.56z"/>
	</g>
</g>
<g>
	<g>
		<path class="st6" d="M446.48,536.37c3.22,0,3.22-5,0-5C443.27,531.37,443.26,536.37,446.48,536.37L446.48,536.37z"/>
	</g>
</g>
<g>
	<g>
		<path class="st6" d="M446.35,538.56c3.22,0,3.22-5,0-5C443.14,533.56,443.13,538.56,446.35,538.56L446.35,538.56z"/>
	</g>
</g>
<g>
	<g>
		<path class="st6" d="M446.35,540.5c3.22,0,3.22-5,0-5C443.14,535.5,443.13,540.5,446.35,540.5L446.35,540.5z"/>
	</g>
</g>
<g>
	<g>
		<path class="st6" d="M446.48,542.31c3.22,0,3.22-5,0-5C443.27,537.31,443.26,542.31,446.48,542.31L446.48,542.31z"/>
	</g>
</g>
<g>
	<g>
		<path class="st6" d="M446.48,544.5c3.22,0,3.22-5,0-5C443.27,539.5,443.26,544.5,446.48,544.5L446.48,544.5z"/>
	</g>
</g>
<g>
	<g>
		<path class="st6" d="M446.48,546.95c3.22,0,3.22-5,0-5C443.27,541.95,443.26,546.95,446.48,546.95L446.48,546.95z"/>
	</g>
</g>
<g>
	<g>
		<path class="st6" d="M446.48,548.89c3.22,0,3.22-5,0-5C443.27,543.89,443.26,548.89,446.48,548.89L446.48,548.89z"/>
	</g>
</g>
<g>
	<g>
		<path class="st6" d="M446.74,551.6c3.22,0,3.22-5,0-5C443.52,546.6,443.52,551.6,446.74,551.6L446.74,551.6z"/>
	</g>
</g>
<g>
	<g>
		<path class="st6" d="M446.74,553.27c3.22,0,3.22-5,0-5C443.52,548.27,443.52,553.27,446.74,553.27L446.74,553.27z"/>
	</g>
</g>
<g>
	<g>
		<path class="st6" d="M446.48,555.34c3.22,0,3.22-5,0-5C443.27,550.34,443.26,555.34,446.48,555.34L446.48,555.34z"/>
	</g>
</g>
<g>
	<g>
		<path class="st6" d="M446.23,557.92c3.22,0,3.22-5,0-5C443.01,552.92,443,557.92,446.23,557.92L446.23,557.92z"/>
	</g>
</g>
<g>
	<g>
		<path class="st6" d="M446.35,560.5c3.22,0,3.22-5,0-5C443.14,555.5,443.13,560.5,446.35,560.5L446.35,560.5z"/>
	</g>
</g>
<g>
	<g>
		<path class="st6" d="M446.48,563.34c3.22,0,3.22-5,0-5C443.27,558.34,443.26,563.34,446.48,563.34L446.48,563.34z"/>
	</g>
</g>
<g>
	<g>
		<path class="st6" d="M446.1,566.56c3.22,0,3.22-5,0-5C442.88,561.56,442.87,566.56,446.1,566.56L446.1,566.56z"/>
	</g>
</g>
<g>
	<g>
		<path class="st6" d="M446.35,569.27c3.22,0,3.22-5,0-5C443.14,564.27,443.13,569.27,446.35,569.27L446.35,569.27z"/>
	</g>
</g>
<g>
	<g>
		<path class="st6" d="M446.1,572.89c3.22,0,3.22-5,0-5C442.88,567.89,442.87,572.89,446.1,572.89L446.1,572.89z"/>
	</g>
</g>
<g>
	<g>
		<path class="st6" d="M446.61,575.21c3.22,0,3.22-5,0-5C443.4,570.21,443.39,575.21,446.61,575.21L446.61,575.21z"/>
	</g>
</g>
<g>
	<g>
		<path class="st6" d="M446.61,578.82c3.22,0,3.22-5,0-5C443.4,573.82,443.39,578.82,446.61,578.82L446.61,578.82z"/>
	</g>
</g>
<g>
	<g>
		<path class="st6" d="M446.87,577.79c3.22,0,3.22-5,0-5C443.65,572.79,443.65,577.79,446.87,577.79L446.87,577.79z"/>
	</g>
</g>
<g>
	<g>
		<path class="st6" d="M446.48,581.27c3.22,0,3.22-5,0-5C443.27,576.27,443.26,581.27,446.48,581.27L446.48,581.27z"/>
	</g>
</g>
<g>
	<g>
		<path class="st6" d="M446.61,576.76c3.22,0,3.22-5,0-5C443.4,571.76,443.39,576.76,446.61,576.76L446.61,576.76z"/>
	</g>
</g>
<g>
	<g>
		<path class="st6" d="M446.48,583.47c3.22,0,3.22-5,0-5C443.27,578.47,443.26,583.47,446.48,583.47L446.48,583.47z"/>
	</g>
</g>
<g>
	<g>
		<path class="st6" d="M446.48,585.92c3.22,0,3.22-5,0-5C443.27,580.92,443.26,585.92,446.48,585.92L446.48,585.92z"/>
	</g>
</g>
<g>
	<g>
		<path class="st6" d="M446.1,588.37c3.22,0,3.22-5,0-5C442.88,583.37,442.87,588.37,446.1,588.37L446.1,588.37z"/>
	</g>
</g>
<g>
	<g>
		<path class="st6" d="M446.1,590.56c3.22,0,3.22-5,0-5C442.88,585.56,442.87,590.56,446.1,590.56L446.1,590.56z"/>
	</g>
</g>
<g>
	<g>
		<path class="st6" d="M446.1,593.27c3.22,0,3.22-5,0-5C442.88,588.27,442.87,593.27,446.1,593.27L446.1,593.27z"/>
	</g>
</g>
<g>
	<g>
		<path class="st6" d="M446.48,594.95c3.22,0,3.22-5,0-5C443.27,589.95,443.26,594.95,446.48,594.95L446.48,594.95z"/>
	</g>
</g>
<g>
	<g>
		<path class="st6" d="M446.48,598.18c3.22,0,3.22-5,0-5C443.27,593.18,443.26,598.18,446.48,598.18L446.48,598.18z"/>
	</g>
</g>
<g>
	<g>
		<path class="st6" d="M446.23,600.89c3.22,0,3.22-5,0-5C443.01,595.89,443,600.89,446.23,600.89L446.23,600.89z"/>
	</g>
</g>
<g>
	<g>
		<path class="st6" d="M447.52,601.53c3.22,0,3.22-5,0-5C444.3,596.53,444.29,601.53,447.52,601.53L447.52,601.53z"/>
	</g>
</g>
<g>
	<g>
		<path class="st6" d="M447.52,602.82c3.22,0,3.22-5,0-5C444.3,597.82,444.29,602.82,447.52,602.82L447.52,602.82z"/>
	</g>
</g>
<g>
	<g>
		<path class="st6" d="M447.13,604.76c3.22,0,3.22-5,0-5C443.91,599.76,443.91,604.76,447.13,604.76L447.13,604.76z"/>
	</g>
</g>
<g>
	<g>
		<path class="st6" d="M446.61,603.6c3.22,0,3.22-5,0-5C443.4,598.6,443.39,603.6,446.61,603.6L446.61,603.6z"/>
	</g>
</g>
<g>
	<g>
		<path class="st6" d="M446.48,605.15c3.22,0,3.22-5,0-5C443.27,600.15,443.26,605.15,446.48,605.15L446.48,605.15z"/>
	</g>
</g>
<g>
	<g>
		<path class="st6" d="M448.94,602.44c3.22,0,3.22-5,0-5C445.72,597.44,445.71,602.44,448.94,602.44L448.94,602.44z"/>
	</g>
</g>
<g>
	<g>
		<path class="st6" d="M450.48,600.24c3.22,0,3.22-5,0-5C447.27,595.24,447.26,600.24,450.48,600.24L450.48,600.24z"/>
	</g>
</g>
<g>
	<g>
		<path class="st6" d="M452.55,597.53c3.22,0,3.22-5,0-5C449.33,592.53,449.33,597.53,452.55,597.53L452.55,597.53z"/>
	</g>
</g>
<g>
	<g>
		<path class="st6" d="M452.42,598.56c3.22,0,3.22-5,0-5C449.2,593.56,449.2,598.56,452.42,598.56L452.42,598.56z"/>
	</g>
</g>
<g>
	<g>
		<path class="st6" d="M453.97,595.47c3.22,0,3.22-5,0-5C450.75,590.47,450.75,595.47,453.97,595.47L453.97,595.47z"/>
	</g>
</g>
<g>
	<g>
		<path class="st6" d="M453.97,595.85c3.22,0,3.22-5,0-5C450.75,590.85,450.75,595.85,453.97,595.85L453.97,595.85z"/>
	</g>
</g>
<g>
	<g>
		<path class="st6" d="M455.26,594.18c3.22,0,3.22-5,0-5C452.04,589.18,452.04,594.18,455.26,594.18L455.26,594.18z"/>
	</g>
</g>
<g>
	<g>
		<path class="st6" d="M456.81,592.24c3.22,0,3.22-5,0-5C453.59,587.24,453.58,592.24,456.81,592.24L456.81,592.24z"/>
	</g>
</g>
<g>
	<g>
		<path class="st6" d="M458.48,590.05c3.22,0,3.22-5,0-5C455.27,585.05,455.26,590.05,458.48,590.05L458.48,590.05z"/>
	</g>
</g>
<g>
	<g>
		<path class="st6" d="M459.65,588.5c3.22,0,3.22-5,0-5C456.43,583.5,456.42,588.5,459.65,588.5L459.65,588.5z"/>
	</g>
</g>
<g>
	<g>
		<path class="st6" d="M513.84,520.5c3.22,0,3.22-5,0-5C510.62,515.5,510.62,520.5,513.84,520.5L513.84,520.5z"/>
	</g>
</g>
<g>
	<g>
		<path class="st6" d="M512.03,522.95c3.22,0,3.22-5,0-5C508.82,517.95,508.81,522.95,512.03,522.95L512.03,522.95z"/>
	</g>
</g>
<g>
	<g>
		<path class="st6" d="M509.97,525.27c3.22,0,3.22-5,0-5C506.75,520.27,506.75,525.27,509.97,525.27L509.97,525.27z"/>
	</g>
</g>
<g>
	<g>
		<path class="st6" d="M508.03,528.11c3.22,0,3.22-5,0-5C504.82,523.11,504.81,528.11,508.03,528.11L508.03,528.11z"/>
	</g>
</g>
<g>
	<g>
		<path class="st6" d="M505.71,530.18c3.22,0,3.22-5,0-5C502.49,525.18,502.49,530.18,505.71,530.18L505.71,530.18z"/>
	</g>
</g>
<g>
	<g>
		<path class="st6" d="M503.9,532.89c3.22,0,3.22-5,0-5C500.69,527.89,500.68,532.89,503.9,532.89L503.9,532.89z"/>
	</g>
</g>
<g>
	<g>
		<path class="st6" d="M505.19,531.21c3.22,0,3.22-5,0-5C501.98,526.21,501.97,531.21,505.19,531.21L505.19,531.21z"/>
	</g>
</g>
<g>
	<g>
		<path class="st6" d="M506.48,529.92c3.22,0,3.22-5,0-5C503.27,524.92,503.26,529.92,506.48,529.92L506.48,529.92z"/>
	</g>
</g>
<g>
	<g>
		<path class="st6" d="M502.35,534.31c3.22,0,3.22-5,0-5C499.14,529.31,499.13,534.31,502.35,534.31L502.35,534.31z"/>
	</g>
</g>
<g>
	<g>
		<path class="st6" d="M501.71,535.6c3.22,0,3.22-5,0-5C498.49,530.6,498.49,535.6,501.71,535.6L501.71,535.6z"/>
	</g>
</g>
<g>
	<g>
		<path class="st6" d="M499.18,532.14c-1.56,1.33-2.02,3.34-3.17,4.96c-0.05,0.06-0.27,0.36-0.04,0.06c0.25-0.32-0.04,0.05-0.1,0.11
			c-0.17,0.2-0.34,0.4-0.52,0.59c-0.34,0.37-0.69,0.72-1.05,1.07c-0.78,0.75-1.56,1.5-2.34,2.25c-0.95,0.91-0.98,2.64,0,3.54
			c1.02,0.93,2.53,0.97,3.54,0c1.62-1.55,3.29-3.04,4.64-4.84c0.56-0.75,0.97-1.57,1.38-2.41c0.19-0.39,0.39-0.79,0.62-1.16
			c0.06-0.1,0.13-0.19,0.19-0.28c0.14-0.24-0.42,0.48-0.1,0.13c0.16-0.17,0.31-0.33,0.49-0.48c1-0.85,0.94-2.67,0-3.54
			C501.65,531.16,500.25,531.23,499.18,532.14L499.18,532.14z"/>
	</g>
</g>
<g>
	<g>
		<path class="st6" d="M490.71,543.14c-1.01,1-2.02,2-3.03,2.99c-0.97,0.96-1.95,1.95-2.58,3.18c-0.87,1.71,0.2,3.69,2.16,3.76
			c1,0.03,1.78-0.36,2.52-1c-1.18-1.18-2.36-2.36-3.54-3.54c-0.97,0.84-1.95,1.69-2.92,2.53c-1.67,1.45-0.3,4.28,1.77,4.27
			c0.04,0,0.07,0,0.11,0c-0.59-0.24-1.18-0.49-1.77-0.73c0.03,0.02,0.05,0.04,0.08,0.06c-0.21-0.37-0.43-0.74-0.64-1.1
			c-0.08-0.44-0.02-0.87,0.18-1.28c-0.1,0.15-0.2,0.3-0.31,0.45c-0.15,0.22-0.31,0.44-0.47,0.66c-0.37,0.51-0.74,1.02-1.12,1.53
			c-0.45,0.59-0.48,0.64-0.93,1.21c-0.39,0.49-0.79,0.98-1.2,1.47c-0.84,1-1.06,2.57,0,3.54c0.92,0.85,2.64,1.07,3.54,0
			c1.32-1.58,2.59-3.21,3.79-4.88c0.65-0.9,1.42-1.8,1.46-2.97c0.04-1.57-1.08-2.95-2.73-2.94c0.59,1.42,1.18,2.85,1.77,4.27
			c0.97-0.84,1.95-1.69,2.92-2.53c0.99-0.86,0.95-2.67,0-3.54c-1.06-0.98-2.47-0.91-3.54,0c0.34-0.16,0.68-0.31,1.02-0.47
			c0.72,1.25,1.44,2.51,2.16,3.76c0.15-0.29,0.31-0.57,0.5-0.84c-0.25,0.34,0.22-0.24,0.23-0.25c0.4-0.44,0.84-0.86,1.27-1.28
			c0.94-0.93,1.88-1.86,2.83-2.79c0.93-0.92,0.99-2.63,0-3.54C493.24,542.22,491.7,542.16,490.71,543.14L490.71,543.14z"/>
	</g>
</g>
<g>
	<g>
		<path class="st6" d="M486.35,554.69c3.22,0,3.22-5,0-5C483.14,549.69,483.13,554.69,486.35,554.69L486.35,554.69z"/>
	</g>
</g>
<g>
	<g>
		<path class="st6" d="M479.13,563.85c3.22,0,3.22-5,0-5C475.91,558.85,475.91,563.85,479.13,563.85L479.13,563.85z"/>
	</g>
</g>
<g>
	<g>
		<path class="st6" d="M477.19,565.79c3.22,0,3.22-5,0-5C473.98,560.79,473.97,565.79,477.19,565.79L477.19,565.79z"/>
	</g>
</g>
<g>
	<g>
		<path class="st6" d="M476.94,566.56c3.22,0,3.22-5,0-5C473.72,561.56,473.71,566.56,476.94,566.56L476.94,566.56z"/>
	</g>
</g>
<g>
	<g>
		<path class="st6" d="M478.35,565.02c3.22,0,3.22-5,0-5C475.14,560.02,475.13,565.02,478.35,565.02L478.35,565.02z"/>
	</g>
</g>
<g>
	<g>
		<path class="st6" d="M475.52,569.02c3.22,0,3.22-5,0-5C472.3,564.02,472.29,569.02,475.52,569.02L475.52,569.02z"/>
	</g>
</g>
<g>
	<g>
		<path class="st6" d="M473.19,571.08c3.22,0,3.22-5,0-5C469.98,566.08,469.97,571.08,473.19,571.08L473.19,571.08z"/>
	</g>
</g>
<g>
	<g>
		<path class="st6" d="M473.58,570.56c3.22,0,3.22-5,0-5C470.36,565.56,470.36,570.56,473.58,570.56L473.58,570.56z"/>
	</g>
</g>
<g>
	<g>
		<path class="st6" d="M469.4,570.39c0,0.04,0,0.09,0,0.13c-0.01,0.34,0.06,0.67,0.22,0.96c0.1,0.31,0.27,0.58,0.52,0.8
			c0.23,0.24,0.49,0.42,0.8,0.52c0.3,0.16,0.62,0.23,0.96,0.22c0.22-0.03,0.44-0.06,0.66-0.09c0.42-0.12,0.79-0.33,1.1-0.64
			c0.13-0.17,0.26-0.34,0.39-0.51c0.23-0.39,0.34-0.81,0.34-1.26c0-0.04,0-0.09,0-0.13c0.01-0.34-0.06-0.67-0.22-0.96
			c-0.1-0.31-0.27-0.58-0.52-0.8c-0.23-0.24-0.49-0.42-0.8-0.52c-0.3-0.16-0.62-0.23-0.96-0.22c-0.22,0.03-0.44,0.06-0.66,0.09
			c-0.42,0.12-0.79,0.33-1.1,0.64c-0.13,0.17-0.26,0.34-0.39,0.51C469.52,569.52,469.4,569.94,469.4,570.39L469.4,570.39z"/>
	</g>
</g>
<g>
	<g>
		<path class="st6" d="M469.25,570.16c-0.07,0.14-0.15,0.28-0.24,0.41c-0.16,0.25-0.21,0.26,0,0.02c-0.21,0.24-0.42,0.47-0.64,0.69
			c-0.46,0.45-0.95,0.86-1.41,1.3c-0.56,0.54-1.07,1.14-1.51,1.79c-0.39,0.58-0.62,1.25-0.97,1.85c0.12-0.2,0.14-0.16-0.01,0.01
			c-0.15,0.16-0.3,0.32-0.45,0.48c-0.26,0.27-0.54,0.52-0.8,0.79c-0.52,0.53-1.02,1.07-1.49,1.64c-1.12,1.32-2.14,2.72-3.04,4.2
			c-0.68,1.12-0.28,2.8,0.9,3.42c1.22,0.64,2.69,0.29,3.42-0.9c0.41-0.66,0.83-1.31,1.29-1.94c0.11-0.16,0.23-0.31,0.35-0.47
			c0.16-0.22-0.17,0.21,0.11-0.14c0.25-0.3,0.49-0.6,0.75-0.9c1.07-1.24,2.39-2.3,3.31-3.66c0.39-0.58,0.61-1.25,0.97-1.85
			c0.2-0.33-0.06,0-0.05,0.05c-0.01-0.06,0.34-0.38,0.38-0.42c0.2-0.21,0.4-0.41,0.61-0.6c1.06-0.99,2.16-1.94,2.86-3.25
			c0.62-1.15,0.33-2.77-0.9-3.42C471.51,568.65,469.91,568.93,469.25,570.16L469.25,570.16z"/>
	</g>
</g>
<g>
	<g>
		<path class="st6" d="M515.26,518.69c3.22,0,3.22-5,0-5C512.04,513.69,512.04,518.69,515.26,518.69L515.26,518.69z"/>
	</g>
</g>
<g>
	<g>
		<path class="st6" d="M516.55,517.02c3.22,0,3.22-5,0-5C513.33,512.02,513.33,517.02,516.55,517.02L516.55,517.02z"/>
	</g>
</g>
<g>
	<g>
		<path class="st6" d="M517.71,515.47c3.22,0,3.22-5,0-5C514.49,510.47,514.49,515.47,517.71,515.47L517.71,515.47z"/>
	</g>
</g>
<g>
	<g>
		<path class="st6" d="M519.13,513.4c3.22,0,3.22-5,0-5C515.91,508.4,515.91,513.4,519.13,513.4L519.13,513.4z"/>
	</g>
</g>
<g>
	<g>
		<path class="st6" d="M520.42,511.21c3.22,0,3.22-5,0-5C517.2,506.21,517.2,511.21,520.42,511.21L520.42,511.21z"/>
	</g>
</g>
<g>
	<g>
		<path class="st6" d="M520.29,511.85c3.22,0,3.22-5,0-5C517.07,506.85,517.07,511.85,520.29,511.85L520.29,511.85z"/>
	</g>
</g>
<g>
	<g>
		<path class="st6" d="M521.58,510.44c3.22,0,3.22-5,0-5C518.36,505.44,518.36,510.44,521.58,510.44L521.58,510.44z"/>
	</g>
</g>
<g>
	<g>
		<path class="st6" d="M522.35,509.02c3.22,0,3.22-5,0-5C519.14,504.02,519.13,509.02,522.35,509.02L522.35,509.02z"/>
	</g>
</g>
<g>
	<g>
		<path class="st6" d="M523.13,508.24c3.22,0,3.22-5,0-5C519.91,503.24,519.91,508.24,523.13,508.24L523.13,508.24z"/>
	</g>
</g>
<g>
	<g>
		<path class="st6" d="M524.7,506.73c1.13-0.29,1.96-1.07,2.6-2c0.39-0.57,0.66-1.22,0.99-1.82c0.74-1.35,1.59-2.64,2.53-3.86
			c-0.13,0.17-0.26,0.34-0.39,0.51c0.1-0.13,0.21-0.27,0.31-0.4c0.43-0.54,0.73-1.05,0.73-1.77c0-0.61-0.27-1.35-0.73-1.77
			c-0.48-0.44-1.1-0.76-1.77-0.73c-0.62,0.03-1.36,0.22-1.77,0.73c-0.92,1.16-1.79,2.35-2.56,3.62c-0.33,0.54-0.64,1.09-0.94,1.65
			c-0.26,0.5-0.5,1.02-0.84,1.48c0.13-0.17,0.26-0.34,0.39-0.51c-0.12,0.15-0.25,0.29-0.4,0.41c0.17-0.13,0.34-0.26,0.51-0.39
			c-0.1,0.07-0.2,0.14-0.32,0.19c0.2-0.08,0.4-0.17,0.6-0.25c-0.09,0.04-0.18,0.07-0.27,0.09c-1.27,0.32-2.16,1.81-1.75,3.08
			C522.04,506.29,523.34,507.08,524.7,506.73L524.7,506.73z"/>
	</g>
</g>
<g>
	<g>
		<path class="st6" d="M521.84,493.53c3.22,0,3.22-5,0-5C518.62,488.53,518.62,493.53,521.84,493.53L521.84,493.53z"/>
	</g>
</g>
<g>
	<g>
		<path class="st6" d="M523.26,493.53c3.22,0,3.22-5,0-5C520.04,488.53,520.04,493.53,523.26,493.53L523.26,493.53z"/>
	</g>
</g>
<g>
	<g>
		<path class="st6" d="M514.48,493.53c3.22,0,3.22-5,0-5C511.27,488.53,511.26,493.53,514.48,493.53L514.48,493.53z"/>
	</g>
</g>
<g>
	<g>
		<path class="st6" d="M510.1,494.05c3.22,0,3.22-5,0-5C506.88,489.05,506.87,494.05,510.1,494.05L510.1,494.05z"/>
	</g>
</g>
<g>
	<g>
		<path class="st6" d="M512.55,493.66c3.22,0,3.22-5,0-5C509.33,488.66,509.33,493.66,512.55,493.66L512.55,493.66z"/>
	</g>
</g>
<g>
	<g>
		<path class="st6" d="M507.65,494.05c3.22,0,3.22-5,0-5C504.43,489.05,504.42,494.05,507.65,494.05L507.65,494.05z"/>
	</g>
</g>
<g>
	<g>
		<path class="st6" d="M505.97,494.05c3.22,0,3.22-5,0-5C502.75,489.05,502.75,494.05,505.97,494.05L505.97,494.05z"/>
	</g>
</g>
<g>
	<g>
		<path class="st6" d="M532.03,494.05c3.22,0,3.22-5,0-5C528.82,489.05,528.81,494.05,532.03,494.05L532.03,494.05z"/>
	</g>
</g>
<g>
	<g>
		<path class="st6" d="M533.45,494.05c3.22,0,3.22-5,0-5C530.23,489.05,530.23,494.05,533.45,494.05L533.45,494.05z"/>
	</g>
</g>
<g>
	<g>
		<path class="st6" d="M534.1,494.05c3.22,0,3.22-5,0-5C530.88,489.05,530.87,494.05,534.1,494.05L534.1,494.05z"/>
	</g>
</g>
<g>
	<g>
		<path class="st6" d="M533.32,494.82c3.22,0,3.22-5,0-5C530.11,489.82,530.1,494.82,533.32,494.82L533.32,494.82z"/>
	</g>
</g>
<g>
	<g>
		<path class="st6" d="M532.81,495.73c3.22,0,3.22-5,0-5C529.59,490.73,529.58,495.73,532.81,495.73L532.81,495.73z"/>
	</g>
</g>
<g>
	<g>
		<path class="st6" d="M532.42,496.37c3.22,0,3.22-5,0-5C529.2,491.37,529.2,496.37,532.42,496.37L532.42,496.37z"/>
	</g>
</g>
<g>
	<g>
		<path class="st6" d="M531.39,497.15c3.22,0,3.22-5,0-5C528.17,492.15,528.16,497.15,531.39,497.15L531.39,497.15z"/>
	</g>
</g>
<g>
	<g>
		<path class="st6" d="M531.13,498.31c3.22,0,3.22-5,0-5C527.91,493.31,527.91,498.31,531.13,498.31L531.13,498.31z"/>
	</g>
</g>
<g>
	<g>
		<path class="st6" d="M530.23,499.34c3.22,0,3.22-5,0-5C527.01,494.34,527,499.34,530.23,499.34L530.23,499.34z"/>
	</g>
</g>
<g>
	<g>
		<path class="st6" d="M529.19,501.15c3.22,0,3.22-5,0-5C525.98,496.15,525.97,501.15,529.19,501.15L529.19,501.15z"/>
	</g>
</g>
<g>
	<g>
		<path class="st6" d="M528.03,502.44c3.22,0,3.22-5,0-5C524.82,497.44,524.81,502.44,528.03,502.44L528.03,502.44z"/>
	</g>
</g>
<g>
	<g>
		<path class="st6" d="M533.84,495.08c3.22,0,3.22-5,0-5C530.62,490.08,530.62,495.08,533.84,495.08L533.84,495.08z"/>
	</g>
</g>
<g>
	<g>
		<path class="st6" d="M534.87,493.92c3.22,0,3.22-5,0-5C531.65,488.92,531.65,493.92,534.87,493.92L534.87,493.92z"/>
	</g>
</g>
<g>
	<g>
		<path class="st6" d="M535.26,493.53c3.22,0,3.22-5,0-5C532.04,488.53,532.04,493.53,535.26,493.53L535.26,493.53z"/>
	</g>
</g>
<g>
	<g>
		<path class="st6" d="M445.97,606.44c3.22,0,3.22-5,0-5C442.75,601.44,442.75,606.44,445.97,606.44L445.97,606.44z"/>
	</g>
</g>
<g>
	<g>
		<path class="st6" d="M537.35,490.57c0.13-0.04,0.26-0.07,0.39-0.09c-0.06,0.01-0.11,0.01-0.17,0.02c0.19-0.03,0.38-0.03,0.57,0
			c-0.06-0.01-0.11-0.01-0.17-0.02c0.04,0,0.07,0.01,0.11,0.02c-0.12-0.31-0.25-0.61-0.37-0.92c-0.03,0.05-0.07,0.1-0.11,0.15
			c0.03-0.04,0.07-0.08,0.1-0.13c-0.13,0.16-0.27,0.31-0.43,0.43c0.04-0.03,0.08-0.07,0.13-0.1c-0.17,0.13-0.35,0.24-0.54,0.32
			c0.05-0.02,0.1-0.04,0.15-0.06c-0.03,0.01-0.06,0.02-0.09,0.03c-0.16,0.06-0.29,0.14-0.37,0.29c-0.08,0.13-0.11,0.33-0.06,0.48
			c0.05,0.15,0.14,0.3,0.29,0.37c0.14,0.07,0.33,0.12,0.48,0.06c0.17-0.06,0.33-0.13,0.49-0.22c0.16-0.09,0.3-0.2,0.44-0.31
			c0.24-0.19,0.45-0.44,0.62-0.69c0.11-0.17,0.11-0.38,0.03-0.56c-0.07-0.17-0.22-0.33-0.41-0.36c-0.47-0.08-0.95-0.07-1.41,0.08
			c-0.15,0.05-0.29,0.14-0.37,0.29c-0.08,0.13-0.11,0.33-0.06,0.48c0.05,0.15,0.14,0.3,0.29,0.37
			C537.01,490.58,537.19,490.62,537.35,490.57L537.35,490.57z"/>
	</g>
</g>
<g>
	<g>
		<path class="st6" d="M445.71,607.34c0.11-0.65,0.15-1.3,0.09-1.95c-0.41,0.06-0.82,0.11-1.23,0.17c0.01,0.03,0.01,0.06,0.01,0.09
			c-0.01-0.09-0.01-0.1-0.01-0.03c0,0.06,0.01,0.12,0.01,0.18c0.01,0.11,0.01,0.21,0,0.32c0,0.06-0.01,0.12-0.01,0.18
			c0,0.04-0.01,0.24,0,0.06c0,0.11-0.04,0.23-0.06,0.34c-0.03,0.11-0.06,0.22-0.09,0.33c-0.02,0.06-0.04,0.11-0.06,0.17
			c-0.04,0.12,0.05-0.11-0.02,0.04c-0.1,0.21-0.22,0.42-0.35,0.61c0.36,0.21,0.72,0.42,1.08,0.63c0.13-0.19,0.25-0.38,0.4-0.56
			c-0.1,0.12,0.03-0.04,0.05-0.07c0.03-0.04,0.06-0.08,0.09-0.11c0.08-0.09,0.16-0.19,0.24-0.28c0.31-0.35,0.64-0.67,1-0.97
			c0.25-0.21,0.23-0.67,0-0.88c-0.27-0.24-0.62-0.23-0.88,0c-0.76,0.64-1.42,1.4-1.97,2.23c-0.18,0.27-0.06,0.7,0.22,0.86
			c0.32,0.17,0.65,0.06,0.86-0.22c0.67-0.94,0.89-2.12,0.7-3.25c-0.05-0.31-0.41-0.49-0.69-0.45c-0.28,0.04-0.57,0.3-0.54,0.61
			c0.03,0.29,0.04,0.58,0.03,0.87c-0.01,0.14-0.01,0.28-0.03,0.42c0,0.03-0.01,0.07-0.01,0.1c0,0.01-0.01,0.13-0.01,0.05
			c0.01-0.08-0.01,0.03-0.01,0.05c-0.01,0.04-0.01,0.09-0.02,0.13c-0.06,0.32,0.09,0.69,0.44,0.77
			C445.24,607.84,445.65,607.68,445.71,607.34L445.71,607.34z"/>
	</g>
</g>
<path class="st1" d="M444,610H189.61c-11.38,0-20.61-9.23-20.61-20.61V138.71c0-10.33,8.38-18.71,18.71-18.71h332.68
	c10.28,0,18.61,8.33,18.61,18.61V490L444,610z"/>
<path class="st1" d="M444,610v-96.42c0-13.58,11.01-24.58,24.58-24.58H539"/>
</svg>
